Grade 1 lc.ufo
<glyph name="hyphen" format="2">
  <advance width="707"/>
  <unicode hex="002D"/>
  <outline>
    <contour>
      <point x="73.8" y="536.78" type="line"/>
      <point x="73.8" y="742.72" type="line"/>
      <point x="353.93" y="738.72" type="line"/>
      <point x="633.37" y="742.72" type="line"/>
      <point x="633.37" y="536.78" type="line"/>
      <point x="353.93" y="540.78" type="line"/>
    </contour>
  </outline>
</glyph>
<glyph name="two" format="2">
  <advance width="1019"/>
  <unicode hex="0032"/>
  <outline>
    <contour>
      <point x="53.150000000000006" y="0.0" type="line"/>
      <point x="53.150000000000006" y="134.09" type="line"/>
      <point x="70.05" y="259.33"/>
      <point x="233.12" y="514.1"/>
      <point x="377.06" y="648.64" type="qcurve" smooth="yes"/>
      <point x="526.0699999999999" y="787.0500000000001"/>
      <point x="645.22" y="981.77"/>
      <point x="645.22" y="1114.4" type="qcurve" smooth="yes"/>
      <point x="645.22" y="1230.37"/>
      <point x="531.5400000000001" y="1350.81"/>
      <point x="435.53999999999996" y="1350.81" type="qcurve" smooth="yes"/>
      <point x="345.6" y="1350.81"/>
      <point x="190.42" y="1260.1299999999999"/>
      <point x="130.20999999999998" y="1179.27" type="qcurve"/>
      <point x="46.58" y="1287.18" type="line"/>
      <point x="115.36" y="1384.97"/>
      <point x="346.25" y="1521.86"/>
      <point x="520.7600000000001" y="1521.86" type="qcurve" smooth="yes"/>
      <point x="704.25" y="1521.86"/>
      <point x="930.1199999999999" y="1325.82"/>
      <point x="931.67" y="1142.23" type="qcurve" smooth="yes"/>
      <point x="933.53" y="935.79"/>
      <point x="699.9499999999999" y="658.81"/>
      <point x="559.8799999999999" y="560.78" type="qcurve" smooth="yes"/>
      <point x="409.57" y="456.84"/>
      <point x="268.26" y="303.54"/>
      <point x="241.85" y="227.53" type="qcurve"/>
      <point x="249.14999999999998" y="214.67000000000002" type="line"/>
      <point x="964.83" y="214.67000000000002" type="line"/>
      <point x="964.83" y="0.0" type="line"/>
    </contour>
  </outline>
</glyph>
<glyph name="six" format="2">
  <advance width="1131"/>
  <unicode hex="0036"/>
  <outline>
    <contour>
      <point x="66.16999999999999" y="632.73" type="qcurve" smooth="yes"/>
      <point x="66.16999999999999" y="982.74"/>
      <point x="491.62000000000006" y="1487.66"/>
      <point x="864.75" y="1573.11" type="qcurve"/>
      <point x="885.39" y="1459.3700000000001" type="line"/>
      <point x="640.61" y="1377.17"/>
      <point x="347.71" y="984.99"/>
      <point x="347.71" y="626.23" type="qcurve" smooth="yes"/>
      <point x="347.71" y="346.53"/>
      <point x="488.84999999999997" y="96.13"/>
      <point x="606.28" y="96.13" type="qcurve" smooth="yes"/>
      <point x="702.0" y="96.13"/>
      <point x="817.97" y="282.56"/>
      <point x="817.97" y="459.17" type="qcurve" smooth="yes"/>
      <point x="817.97" y="642.22"/>
      <point x="702.76" y="790.9899999999999"/>
      <point x="615.1" y="790.9899999999999" type="qcurve" smooth="yes"/>
      <point x="564.84" y="790.9899999999999"/>
      <point x="504.19" y="776.0600000000001"/>
      <point x="479.3499999999999" y="764.2" type="qcurve"/>
      <point x="442.28" y="846.64" type="line"/>
      <point x="472.25000000000006" y="881.09"/>
      <point x="599.16" y="935.06"/>
      <point x="682.7" y="935.06" type="qcurve" smooth="yes"/>
      <point x="868.18" y="935.06"/>
      <point x="1085.4399999999998" y="702.58"/>
      <point x="1085.4399999999998" y="509.53000000000003" type="qcurve" smooth="yes"/>
      <point x="1085.4399999999998" y="255.35000000000002"/>
      <point x="812.0799999999999" y="-22.62"/>
      <point x="603.01" y="-22.62" type="qcurve" smooth="yes"/>
      <point x="362.59" y="-22.62"/>
      <point x="66.16999999999999" y="328.1"/>
    </contour>
  </outline>
</glyph>
<glyph name="seven" format="2">
  <advance width="985"/>
  <unicode hex="0037"/>
  <outline>
    <contour>
      <point x="44.97" y="1074.26" type="line"/>
      <point x="58.47" y="1500.0" type="line"/>
      <point x="968.79" y="1500.0" type="line"/>
      <point x="968.79" y="1382.34" type="line"/>
      <point x="674.33" y="647.0999999999999" type="line"/>
      <point x="447.21000000000004" y="-21.23" type="line"/>
      <point x="226.34" y="-21.23" type="line"/>
      <point x="226.34" y="54.559999999999995" type="line"/>
      <point x="522.6" y="682.67" type="line"/>
      <point x="774.4300000000001" y="1260.24" type="line"/>
      <point x="751.64" y="1283.26" type="line"/>
      <point x="198.59" y="1283.26" type="line"/>
      <point x="163.41" y="1074.26" type="line"/>
    </contour>
  </outline>
</glyph>
<glyph name="eight" format="2">
  <advance width="1084"/>
  <unicode hex="0038"/>
  <outline>
    <contour>
      <point x="43.199999999999996" y="383.77000000000004" type="qcurve" smooth="yes"/>
      <point x="43.199999999999996" y="571.43"/>
      <point x="291.40999999999997" y="797.7"/>
      <point x="436.22" y="844.8" type="qcurve"/>
      <point x="507.93000000000006" y="784.49" type="line"/>
      <point x="408.07" y="729.39"/>
      <point x="272.03000000000003" y="535.58"/>
      <point x="272.03000000000003" y="383.79" type="qcurve" smooth="yes"/>
      <point x="272.03000000000003" y="249.82000000000002"/>
      <point x="412.71" y="93.44"/>
      <point x="538.06" y="93.44" type="qcurve" smooth="yes"/>
      <point x="650.11" y="93.44"/>
      <point x="790.79" y="237.43"/>
      <point x="790.79" y="370.3" type="qcurve" smooth="yes"/>
      <point x="790.79" y="483.72"/>
      <point x="664.8299999999999" y="625.19"/>
      <point x="495.51" y="709.44" type="qcurve" smooth="yes"/>
      <point x="296.28000000000003" y="805.04"/>
      <point x="133.74" y="1000.74"/>
      <point x="134.98" y="1158.25" type="qcurve" smooth="yes"/>
      <point x="136.22" y="1324.11"/>
      <point x="381.45" y="1524.67"/>
      <point x="558.32" y="1524.67" type="qcurve" smooth="yes"/>
      <point x="736.34" y="1524.67"/>
      <point x="948.3100000000001" y="1351.55"/>
      <point x="948.3100000000001" y="1210.32" type="qcurve" smooth="yes"/>
      <point x="948.3100000000001" y="1078.08"/>
      <point x="779.61" y="884.66"/>
      <point x="639.84" y="807.31" type="qcurve"/>
      <point x="552.5" y="864.45" type="line"/>
      <point x="644.16" y="930.21"/>
      <point x="740.86" y="1083.89"/>
      <point x="740.86" y="1194.2" type="qcurve" smooth="yes"/>
      <point x="740.86" y="1293.86"/>
      <point x="637.6600000000001" y="1407.12"/>
      <point x="551.81" y="1407.12" type="qcurve" smooth="yes"/>
      <point x="466.16999999999996" y="1407.12"/>
      <point x="352.96999999999997" y="1290.06"/>
      <point x="352.96999999999997" y="1198.16" type="qcurve" smooth="yes"/>
      <point x="352.96999999999997" y="1103.61"/>
      <point x="459.95000000000005" y="979.61"/>
      <point x="648.7" y="894.88" type="qcurve" smooth="yes"/>
      <point x="838.56" y="810.29"/>
      <point x="1039.98" y="593.27"/>
      <point x="1039.98" y="416.38" type="qcurve" smooth="yes"/>
      <point x="1039.98" y="227.87"/>
      <point x="773.37" y="-23.24"/>
      <point x="540.23" y="-23.24" type="qcurve" smooth="yes"/>
      <point x="300.95" y="-23.24"/>
      <point x="43.199999999999996" y="206.28"/>
    </contour>
  </outline>
</glyph>
<glyph name="L" format="2">
  <advance width="1161"/>
  <unicode hex="004C"/>
  <outline>
    <contour>
      <point x="63.300000000000004" y="0.0" type="line"/>
      <point x="63.300000000000004" y="107.61999999999999" type="line"/>
      <point x="227.98000000000002" y="141.81" type="line"/>
      <point x="229.98000000000002" y="754.0" type="line"/>
      <point x="227.98000000000002" y="1345.22" type="line"/>
      <point x="50.279999999999994" y="1379.22" type="line"/>
      <point x="50.279999999999994" y="1500.0" type="line"/>
      <point x="688.13" y="1500.0" type="line"/>
      <point x="688.13" y="1379.22" type="line"/>
      <point x="503.6" y="1345.22" type="line"/>
      <point x="501.90999999999997" y="754.0" type="line"/>
      <point x="503.90999999999997" y="144.17" type="line"/>
      <point x="536.3900000000001" y="118.85" type="line"/>
      <point x="933.7500000000001" y="118.85" type="line"/>
      <point x="1006.97" y="413.01000000000005" type="line"/>
      <point x="1145.1100000000001" y="413.01000000000005" type="line"/>
      <point x="1102.69" y="0.0" type="line"/>
    </contour>
  </outline>
</glyph>
<glyph name="Q" format="2">
  <advance width="1499"/>
  <unicode hex="0051"/>
  <outline>
    <contour>
      <point x="68.63" y="742.97" type="qcurve" smooth="yes"/>
      <point x="68.63" y="1070.6999999999998"/>
      <point x="449.58" y="1522.17"/>
      <point x="749.5" y="1522.17" type="qcurve" smooth="yes"/>
      <point x="1049.73" y="1522.17"/>
      <point x="1429.95" y="1099.6999999999998"/>
      <point x="1429.95" y="756.08" type="qcurve" smooth="yes"/>
      <point x="1429.95" y="422.25"/>
      <point x="1045.01" y="-22.39"/>
      <point x="751.89" y="-22.39" type="qcurve" smooth="yes"/>
      <point x="453.89" y="-22.39"/>
      <point x="68.63" y="407.01"/>
    </contour>
    <contour>
      <point x="362.97999999999996" y="775.43" type="qcurve" smooth="yes"/>
      <point x="363.52000000000004" y="477.72"/>
      <point x="577.86" y="116.02999999999999"/>
      <point x="749.0699999999999" y="116.02999999999999" type="qcurve" smooth="yes"/>
      <point x="935.21" y="116.02999999999999"/>
      <point x="1133.9299999999998" y="439.08"/>
      <point x="1134.47" y="750.32" type="qcurve" smooth="yes"/>
      <point x="1135.01" y="1039.12"/>
      <point x="923.6300000000001" y="1373.29"/>
      <point x="750.15" y="1373.29" type="qcurve" smooth="yes"/>
      <point x="562.93" y="1373.29"/>
      <point x="362.44" y="1071.81"/>
    </contour>
    <contour>
      <point x="261.15000000000003" y="-330.3" type="qcurve"/>
      <point x="196.17" y="-271.74" type="line"/>
      <point x="249.42000000000002" y="-160.94"/>
      <point x="408.61" y="-47.129999999999995"/>
      <point x="486.9100000000001" y="-39.89" type="qcurve"/>
      <point x="671.85" y="328.59999999999997" type="line"/>
      <point x="776.38" y="271.51" type="line"/>
      <point x="603.32" y="-65.88" type="line"/>
      <point x="1126.5700000000002" y="-243.44" type="line"/>
      <point x="1196.46" y="-243.44"/>
      <point x="1286.45" y="-163.05"/>
      <point x="1315.76" y="-100.37" type="qcurve"/>
      <point x="1403.9299999999998" y="-149.56" type="line"/>
      <point x="1363.9699999999998" y="-273.71000000000004"/>
      <point x="1226.0900000000001" y="-444.78000000000003"/>
      <point x="1104.73" y="-444.78000000000003" type="qcurve"/>
      <point x="488.98999999999995" y="-230.57999999999998" type="line"/>
      <point x="412.32" y="-230.57999999999998"/>
      <point x="309.13" y="-270.24"/>
    </contour>
  </outline>
</glyph>
<glyph name="V" format="2">
  <advance width="1336"/>
  <unicode hex="0056"/>
  <outline>
    <contour>
      <point x="-2.0600000000000023" y="1379.95" type="line"/>
      <point x="-2.0600000000000023" y="1500.0" type="line"/>
      <point x="577.3" y="1500.0" type="line"/>
      <point x="577.3" y="1379.95" type="line"/>
      <point x="428.96" y="1343.64" type="line"/>
      <point x="582.88" y="828.08" type="line"/>
      <point x="742.29" y="300.37" type="line"/>
      <point x="899.9100000000001" y="836.89" type="line"/>
      <point x="1046.7" y="1345.95" type="line"/>
      <point x="881.0699999999999" y="1379.95" type="line"/>
      <point x="881.0699999999999" y="1500.0" type="line"/>
      <point x="1343.05" y="1500.0" type="line"/>
      <point x="1343.05" y="1379.95" type="line"/>
      <point x="1192.85" y="1344.1799999999998" type="line"/>
      <point x="1022.3399999999999" y="790.23" type="line"/>
      <point x="783.1899999999999" y="-5.52" type="line"/>
      <point x="549.8" y="-5.52" type="line"/>
      <point x="315.84999999999997" y="769.41" type="line"/>
      <point x="137.52" y="1344.1799999999998" type="line"/>
    </contour>
  </outline>
</glyph>
<glyph name="Z" format="2">
  <advance width="1111"/>
  <unicode hex="005A"/>
  <outline>
    <contour>
      <point x="66.52" y="0.0" type="line"/>
      <point x="38.11" y="98.2" type="line"/>
      <point x="726.87" y="1359.43" type="line"/>
      <point x="719.02" y="1369.6" type="line"/>
      <point x="253.35999999999999" y="1369.6" type="line"/>
      <point x="215.20999999999998" y="1082.86" type="line"/>
      <point x="87.18" y="1082.86" type="line"/>
      <point x="87.18" y="1500.0" type="line"/>
      <point x="1049.32" y="1500.0" type="line"/>
      <point x="1049.32" y="1399.7" type="line"/>
      <point x="360.26" y="133.53" type="line"/>
      <point x="368.15" y="123.5" type="line"/>
      <point x="889.5" y="123.5" type="line"/>
      <point x="974.6300000000001" y="398.01" type="line"/>
      <point x="1100.31" y="398.01" type="line"/>
      <point x="1052.6599999999999" y="0.0" type="line"/>
    </contour>
  </outline>
</glyph>
<glyph name="backslash" format="2">
  <advance width="732"/>
  <unicode hex="005C"/>
  <outline>
    <contour>
      <point x="-8.84" y="1510.0" type="line"/>
      <point x="178.64999999999998" y="1570.5" type="line"/>
      <point x="743.3000000000001" y="-104.05" type="line"/>
      <point x="555.5" y="-163.93" type="line"/>
    </contour>
  </outline>
</glyph>
<glyph name="h" format="2">
  <advance width="1212"/>
  <unicode hex="0068"/>
  <outline>
    <contour>
      <point x="50.07" y="0.0" type="line"/>
      <point x="50.07" y="92.4" type="line"/>
      <point x="176.29" y="127.4" type="line"/>
      <point x="178.29" y="537.85" type="line"/>
      <point x="176.29" y="1361.9199999999998" type="line"/>
      <point x="36.45" y="1393.6" type="line"/>
      <point x="36.45" y="1500.0" type="line"/>
      <point x="369.6" y="1534.0" type="line"/>
      <point x="401.6" y="1534.0" type="line"/>
      <point x="438.59000000000003" y="1497.35" type="line"/>
      <point x="437.48" y="881.94" type="line"/>
      <point x="486.26" y="945.42"/>
      <point x="659.4399999999999" y="1034.98"/>
      <point x="765.9300000000001" y="1034.98" type="qcurve" smooth="yes"/>
      <point x="905.5799999999999" y="1034.98"/>
      <point x="1042.4" y="887.01"/>
      <point x="1042.4" y="760.79" type="qcurve" smooth="yes"/>
      <point x="1042.4" y="697.0100000000001"/>
      <point x="1039.79" y="554.65"/>
      <point x="1039.79" y="552.24" type="qcurve"/>
      <point x="1044.26" y="127.4" type="line"/>
      <point x="1173.98" y="92.4" type="line"/>
      <point x="1173.98" y="0.0" type="line"/>
      <point x="667.46" y="0.0" type="line"/>
      <point x="667.46" y="92.4" type="line"/>
      <point x="779.06" y="127.4" type="line"/>
      <point x="780.8399999999999" y="536.4300000000001" type="line"/>
      <point x="780.8399999999999" y="699.73" type="line" smooth="yes"/>
      <point x="780.8399999999999" y="773.45"/>
      <point x="705.4" y="855.64"/>
      <point x="641.01" y="855.64" type="qcurve" smooth="yes"/>
      <point x="582.1800000000001" y="855.64"/>
      <point x="471.14000000000004" y="789.44"/>
      <point x="437.63" y="730.72" type="qcurve"/>
      <point x="436.7" y="536.4300000000001" type="line"/>
      <point x="438.17" y="127.4" type="line"/>
      <point x="543.7800000000001" y="92.4" type="line"/>
      <point x="543.7800000000001" y="0.0" type="line"/>
    </contour>
  </outline>
</glyph>
<glyph name="i" format="2">
  <advance width="629"/>
  <unicode hex="0069"/>
  <outline>
    <contour>
      <point x="52.60000000000001" y="0.0" type="line"/>
      <point x="52.60000000000001" y="92.4" type="line"/>
      <point x="188.78" y="127.4" type="line"/>
      <point x="190.78" y="534.75" type="line"/>
      <point x="187.43" y="846.65" type="line"/>
      <point x="51.25" y="876.65" type="line"/>
      <point x="51.25" y="982.74" type="line"/>
      <point x="371.51" y="1016.12" type="line"/>
      <point x="428.12" y="1016.12" type="line"/>
      <point x="457.32000000000005" y="976.12" type="line"/>
      <point x="450.32000000000005" y="534.75" type="line"/>
      <point x="452.32000000000005" y="127.4" type="line"/>
      <point x="588.5" y="92.4" type="line"/>
      <point x="588.5" y="0.0" type="line"/>
    </contour>
    <contour>
      <point x="129.28" y="1329.48" type="qcurve" smooth="yes"/>
      <point x="129.28" y="1393.71"/>
      <point x="217.07000000000002" y="1467.17"/>
      <point x="299.11" y="1467.17" type="qcurve" smooth="yes"/>
      <point x="376.53000000000003" y="1467.17"/>
      <point x="470.49" y="1391.5700000000002"/>
      <point x="470.18000000000006" y="1329.48" type="qcurve" smooth="yes"/>
      <point x="470.18000000000006" y="1267.1100000000001"/>
      <point x="382.39000000000004" y="1195.09"/>
      <point x="299.73" y="1195.09" type="qcurve" smooth="yes"/>
      <point x="222.62000000000003" y="1195.09"/>
      <point x="129.28" y="1270.69"/>
    </contour>
  </outline>
</glyph>
<glyph name="m" format="2">
  <advance width="1793"/>
  <unicode hex="006D"/>
  <outline>
    <contour>
      <point x="50.07" y="0.0" type="line"/>
      <point x="50.07" y="92.4" type="line"/>
      <point x="177.91" y="127.4" type="line"/>
      <point x="179.91" y="534.75" type="line"/>
      <point x="177.91" y="846.65" type="line"/>
      <point x="50.07" y="876.65" type="line"/>
      <point x="50.07" y="982.74" type="line"/>
      <point x="377.70000000000005" y="1019.22" type="line"/>
      <point x="412.70000000000005" y="992.22" type="line"/>
      <point x="432.88" y="873.61" type="line"/>
      <point x="481.33" y="946.1099999999999"/>
      <point x="649.99" y="1034.71"/>
      <point x="757.67" y="1034.71" type="qcurve" smooth="yes"/>
      <point x="864.98" y="1034.71"/>
      <point x="995.2900000000001" y="945.5899999999999"/>
      <point x="1018.6800000000001" y="865.87" type="qcurve"/>
      <point x="1066.7" y="943.02"/>
      <point x="1234.0" y="1034.71"/>
      <point x="1347.1200000000001" y="1034.71" type="qcurve" smooth="yes"/>
      <point x="1486.77" y="1034.71"/>
      <point x="1623.5900000000001" y="886.74"/>
      <point x="1623.5900000000001" y="760.52" type="qcurve" smooth="yes"/>
      <point x="1623.2800000000002" y="698.36"/>
      <point x="1620.98" y="561.9"/>
      <point x="1620.98" y="552.24" type="qcurve" smooth="yes"/>
      <point x="1625.4499999999998" y="127.09" type="line"/>
      <point x="1755.17" y="92.4" type="line"/>
      <point x="1755.17" y="0.0" type="line"/>
      <point x="1256.26" y="0.0" type="line"/>
      <point x="1256.26" y="92.4" type="line"/>
      <point x="1360.56" y="127.4" type="line"/>
      <point x="1362.03" y="538.11" type="line"/>
      <point x="1362.03" y="699.46" type="line" smooth="yes"/>
      <point x="1362.03" y="776.4200000000001"/>
      <point x="1286.75" y="855.37"/>
      <point x="1223.44" y="855.37" type="qcurve" smooth="yes"/>
      <point x="1165.74" y="855.37"/>
      <point x="1063.7800000000002" y="795.31"/>
      <point x="1032.17" y="739.11" type="qcurve"/>
      <point x="1030.25" y="685.12"/>
      <point x="1029.3600000000001" y="573.92"/>
      <point x="1029.3600000000001" y="540.7700000000001" type="qcurve" smooth="yes"/>
      <point x="1032.06" y="127.4" type="line"/>
      <point x="1136.71" y="92.4" type="line"/>
      <point x="1136.71" y="0.0" type="line"/>
      <point x="661.37" y="0.0" type="line"/>
      <point x="661.37" y="92.4" type="line"/>
      <point x="769.87" y="127.4" type="line"/>
      <point x="771.03" y="548.61" type="line"/>
      <point x="771.03" y="709.69" type="line" smooth="yes"/>
      <point x="771.03" y="781.38"/>
      <point x="695.72" y="855.06"/>
      <point x="635.8499999999999" y="855.37" type="qcurve" smooth="yes"/>
      <point x="576.8" y="855.68"/>
      <point x="470.44" y="792.82"/>
      <point x="438.94" y="733.82" type="qcurve"/>
      <point x="438.36" y="531.81" type="line"/>
      <point x="439.52" y="127.4" type="line"/>
      <point x="538.0" y="92.4" type="line"/>
      <point x="538.0" y="0.0" type="line"/>
    </contour>
  </outline>
</glyph>
<glyph name="r" format="2">
  <advance width="845"/>
  <unicode hex="0072"/>
  <anchor x="300.34" y="0" name="bottom"/>
  <outline>
    <contour>
      <point x="51.0" y="0.0" type="line"/>
      <point x="51.0" y="92.4" type="line"/>
      <point x="177.60000000000002" y="127.4" type="line"/>
      <point x="179.60000000000002" y="531.65" type="line"/>
      <point x="177.91" y="846.65" type="line"/>
      <point x="50.07" y="876.65" type="line"/>
      <point x="50.07" y="982.74" type="line"/>
      <point x="377.97" y="1019.22" type="line"/>
      <point x="412.97" y="992.22" type="line"/>
      <point x="433.26" y="871.96" type="line"/>
      <point x="479.54999999999995" y="930.62"/>
      <point x="639.41" y="1017.05"/>
      <point x="743.8800000000001" y="1017.05" type="qcurve" smooth="yes"/>
      <point x="821.95" y="1017.05" type="line"/>
      <point x="821.95" y="716.45" type="line"/>
      <point x="697.5" y="716.45" type="line"/>
      <point x="669.5600000000001" y="846.74" type="line"/>
      <point x="607.94" y="849.91"/>
      <point x="486.46999999999997" y="792.73"/>
      <point x="440.8" y="728.72" type="qcurve"/>
      <point x="440.18" y="546.35" type="line"/>
      <point x="441.34000000000003" y="127.4" type="line"/>
      <point x="584.51" y="92.4" type="line"/>
      <point x="584.51" y="0.0" type="line"/>
    </contour>
  </outline>
</glyph>
<glyph name="exclamdown" format="2">
  <advance width="656"/>
  <unicode hex="00A1"/>
  <outline>
    <contour>
      <point x="486.16" y="1182.6200000000001" type="qcurve" smooth="yes"/>
      <point x="486.16" y="1120.34"/>
      <point x="396.56" y="1029.57"/>
      <point x="326.6" y="1029.57" type="qcurve" smooth="yes"/>
      <point x="256.22" y="1029.57"/>
      <point x="166.62" y="1120.34"/>
      <point x="166.62" y="1182.6200000000001" type="qcurve" smooth="yes"/>
      <point x="166.62" y="1244.6299999999999"/>
      <point x="256.22" y="1335.4"/>
      <point x="326.6" y="1335.4" type="qcurve" smooth="yes"/>
      <point x="396.56" y="1335.4"/>
      <point x="486.16" y="1244.6299999999999"/>
    </contour>
    <contour>
      <point x="461.21000000000004" y="-69.27" type="line" smooth="yes"/>
      <point x="464.1" y="-142.54"/>
      <point x="396.31" y="-238.22"/>
      <point x="329.84000000000003" y="-238.91" type="qcurve" smooth="yes"/>
      <point x="263.06" y="-239.91"/>
      <point x="190.65" y="-143.92000000000002"/>
      <point x="193.54" y="-69.96000000000001" type="qcurve" smooth="yes"/>
      <point x="205.66" y="218.0" type="line"/>
      <point x="246.51999999999998" y="526.0" type="line"/>
      <point x="271.92" y="880.8" type="line"/>
      <point x="384.52000000000004" y="880.8" type="line"/>
      <point x="409.92" y="526.0" type="line"/>
      <point x="449.09" y="218.0" type="line"/>
    </contour>
  </outline>
</glyph>
<glyph name="sterling" format="2">
  <advance width="1059"/>
  <unicode hex="00A3"/>
  <outline>
    <contour>
      <point x="636.28" y="550.9" type="qcurve" smooth="yes"/>
      <point x="636.28" y="424.20000000000005"/>
      <point x="504.6" y="227.68"/>
      <point x="414.68" y="177.11" type="qcurve"/>
      <point x="422.68" y="144.11" type="line"/>
      <point x="798.16" y="139.0" type="line"/>
      <point x="922.18" y="387.5" type="line"/>
      <point x="1039.28" y="387.5" type="line"/>
      <point x="940.28" y="0.0" type="line"/>
      <point x="71.68" y="0.0" type="line"/>
      <point x="11.68" y="115.5" type="line"/>
      <point x="56.199999999999996" y="168.24" type="line"/>
      <point x="247.01" y="157.24"/>
      <point x="419.08" y="358.42999999999995"/>
      <point x="419.08" y="469.29999999999995" type="qcurve" smooth="yes"/>
      <point x="419.08" y="533.02"/>
      <point x="339.12" y="673.83"/>
      <point x="287.88" y="743.9" type="qcurve" smooth="yes"/>
      <point x="215.61" y="842.31"/>
      <point x="109.51" y="1031.56"/>
      <point x="109.51" y="1138.56" type="qcurve" smooth="yes"/>
      <point x="109.51" y="1296.28"/>
      <point x="350.16999999999996" y="1505.65"/>
      <point x="554.97" y="1505.65" type="qcurve" smooth="yes"/>
      <point x="703.4799999999999" y="1505.65"/>
      <point x="899.63" y="1402.95"/>
      <point x="962.72" y="1322.54" type="qcurve"/>
      <point x="887.98" y="1203.4" type="line"/>
      <point x="827.85" y="1272.9399999999998"/>
      <point x="687.22" y="1350.23"/>
      <point x="589.6099999999999" y="1350.23" type="qcurve" smooth="yes"/>
      <point x="472.72" y="1350.23"/>
      <point x="363.76" y="1234.53"/>
      <point x="363.76" y="1151.53" type="qcurve" smooth="yes"/>
      <point x="363.76" y="1075.53"/>
      <point x="445.08000000000004" y="923.0"/>
      <point x="510.08000000000004" y="836.0" type="qcurve" smooth="yes"/>
      <point x="567.08" y="759.0"/>
      <point x="636.28" y="609.9"/>
    </contour>
    <contour>
      <point x="170.08" y="581.5" type="line"/>
      <point x="142.98000000000002" y="737.1" type="line"/>
      <point x="895.18" y="737.1" type="line"/>
      <point x="862.08" y="581.5" type="line"/>
    </contour>
  </outline>
</glyph>
<glyph name="currency" format="2">
  <advance width="1271"/>
  <unicode hex="00A4"/>
  <outline>
    <contour>
      <point x="151.9" y="788.78" type="qcurve" smooth="yes"/>
      <point x="151.9" y="994.99"/>
      <point x="411.68" y="1285.53"/>
      <point x="622.8100000000001" y="1285.53" type="qcurve" smooth="yes"/>
      <point x="834.83" y="1285.53"/>
      <point x="1098.03" y="1014.15"/>
      <point x="1098.03" y="794.36" type="qcurve" smooth="yes"/>
      <point x="1098.03" y="588.84"/>
      <point x="839.4100000000001" y="291.72"/>
      <point x="628.3900000000001" y="291.72" type="qcurve" smooth="yes"/>
      <point x="416.26" y="291.72"/>
      <point x="151.9" y="566.68"/>
    </contour>
    <contour>
      <point x="321.74" y="805.39" type="qcurve" smooth="yes"/>
      <point x="322.74" y="656.17"/>
      <point x="484.31000000000006" y="450.78"/>
      <point x="620.8100000000001" y="450.78" type="qcurve" smooth="yes"/>
      <point x="767.8499999999999" y="450.78"/>
      <point x="921.88" y="637.56"/>
      <point x="921.88" y="793.16" type="qcurve" smooth="yes"/>
      <point x="921.88" y="935.38"/>
      <point x="760.31" y="1121.2"/>
      <point x="622.8100000000001" y="1121.2" type="qcurve" smooth="yes"/>
      <point x="474.5" y="1121.2"/>
      <point x="320.74" y="952.3"/>
    </contour>
    <contour>
      <point x="288.85" y="1031.21" type="line"/>
      <point x="51.239999999999995" y="1279.74" type="line"/>
      <point x="169.31" y="1405.6499999999999" type="line"/>
      <point x="406.92" y="1157.12" type="line"/>
    </contour>
    <contour>
      <point x="981.67" y="1031.21" type="line"/>
      <point x="863.6" y="1157.12" type="line"/>
      <point x="1101.21" y="1405.6499999999999" type="line"/>
      <point x="1219.28" y="1279.74" type="line"/>
    </contour>
    <contour>
      <point x="288.85" y="527.19" type="line"/>
      <point x="406.92" y="401.28000000000003" type="line"/>
      <point x="169.31" y="152.75" type="line"/>
      <point x="51.239999999999995" y="278.65999999999997" type="line"/>
    </contour>
    <contour>
      <point x="981.67" y="527.19" type="line"/>
      <point x="1219.28" y="278.65999999999997" type="line"/>
      <point x="1101.21" y="152.75" type="line"/>
      <point x="863.6" y="401.28000000000003" type="line"/>
    </contour>
  </outline>
</glyph>
<glyph name="yen" format="2">
  <advance width="1288"/>
  <unicode hex="00A5"/>
  <outline>
    <contour>
      <point x="184.85" y="622.32" type="line"/>
      <point x="153.60999999999999" y="771.57" type="line"/>
      <point x="1158.91" y="771.57" type="line"/>
      <point x="1125.81" y="622.32" type="line"/>
    </contour>
    <contour>
      <point x="522.28" y="642.48" type="line"/>
      <point x="343.27000000000004" y="981.58" type="line"/>
      <point x="139.35000000000002" y="1347.69" type="line"/>
      <point x="7.700000000000001" y="1379.53" type="line"/>
      <point x="7.700000000000001" y="1500.0" type="line"/>
      <point x="579.02" y="1500.0" type="line"/>
      <point x="579.02" y="1379.53" type="line"/>
      <point x="447.13" y="1345.26" type="line"/>
      <point x="584.33" y="1062.44" type="line"/>
      <point x="727.06" y="798.27" type="line"/>
      <point x="868.7800000000001" y="1074.59" type="line"/>
      <point x="999.19" y="1347.15" type="line"/>
      <point x="855.42" y="1379.53" type="line"/>
      <point x="855.42" y="1500.0" type="line"/>
      <point x="1292.55" y="1500.0" type="line"/>
      <point x="1292.55" y="1379.53" type="line"/>
      <point x="1155.21" y="1347.4199999999998" type="line"/>
      <point x="976.6899999999999" y="1013.79" type="line"/>
      <point x="788.63" y="647.48" type="line"/>
      <point x="790.3199999999999" y="142.31" type="line"/>
      <point x="977.0899999999999" y="107.61999999999999" type="line"/>
      <point x="977.0899999999999" y="0.0" type="line"/>
      <point x="332.19" y="0.0" type="line"/>
      <point x="332.19" y="107.61999999999999" type="line"/>
      <point x="520.28" y="142.31" type="line"/>
    </contour>
    <contour>
      <point x="241.75" y="317.67" type="line"/>
      <point x="210.51" y="466.92" type="line"/>
      <point x="1101.08" y="466.92" type="line"/>
      <point x="1067.98" y="317.67" type="line"/>
    </contour>
  </outline>
</glyph>
<glyph name="dieresis" format="2">
  <advance width="1024"/>
  <unicode hex="00A8"/>
  <anchor x="512.0" y="1022" name="_GRKtop"/>
  <outline>
    <contour>
      <point x="594.44" y="1272.32" type="qcurve" smooth="yes"/>
      <point x="594.44" y="1329.76"/>
      <point x="654.98" y="1391.2"/>
      <point x="711.32" y="1391.2" type="qcurve" smooth="yes"/>
      <point x="764.6600000000001" y="1391.2"/>
      <point x="828.1999999999999" y="1325.56"/>
      <point x="828.1999999999999" y="1272.32" type="qcurve" smooth="yes"/>
      <point x="828.1999999999999" y="1215.15"/>
      <point x="768.97" y="1153.4"/>
      <point x="711.32" y="1153.4" type="qcurve" smooth="yes"/>
      <point x="657.98" y="1153.4"/>
      <point x="594.44" y="1218.46"/>
    </contour>
    <contour>
      <point x="195.8" y="1272.32" type="qcurve" smooth="yes"/>
      <point x="195.8" y="1329.76"/>
      <point x="256.03000000000003" y="1391.2"/>
      <point x="312.68" y="1391.2" type="qcurve" smooth="yes"/>
      <point x="366.02000000000004" y="1391.2"/>
      <point x="429.56" y="1325.56"/>
      <point x="429.56" y="1272.32" type="qcurve" smooth="yes"/>
      <point x="429.56" y="1215.15"/>
      <point x="370.02000000000004" y="1153.4"/>
      <point x="312.68" y="1153.4" type="qcurve" smooth="yes"/>
      <point x="259.34000000000003" y="1153.4"/>
      <point x="195.8" y="1218.46"/>
    </contour>
  </outline>
</glyph>
<glyph name="ordfeminine" format="2">
  <advance width="951"/>
  <unicode hex="00AA"/>
  <outline>
    <contour>
      <point x="75.48" y="882.09" type="qcurve" smooth="yes"/>
      <point x="75.48" y="1010.96"/>
      <point x="327.46" y="1175.8500000000001"/>
      <point x="589.8299999999999" y="1205.55" type="qcurve"/>
      <point x="596.26" y="1118.41" type="line"/>
      <point x="450.94000000000005" y="1099.37"/>
      <point x="296.13" y="999.3"/>
      <point x="296.75" y="899.84" type="qcurve" smooth="yes"/>
      <point x="297.06" y="841.25"/>
      <point x="357.15999999999997" y="787.0899999999999"/>
      <point x="404.28000000000003" y="787.0899999999999" type="qcurve" smooth="yes"/>
      <point x="451.57" y="787.0899999999999"/>
      <point x="541.03" y="847.39"/>
      <point x="561.91" y="889.49" type="qcurve"/>
      <point x="563.49" y="1193.54" type="line" smooth="yes"/>
      <point x="564.0699999999999" y="1335.1"/>
      <point x="490.40999999999997" y="1426.93"/>
      <point x="414.1" y="1426.93" type="qcurve" smooth="yes"/>
      <point x="359.19" y="1426.93"/>
      <point x="278.66999999999996" y="1399.3"/>
      <point x="258.63" y="1379.83" type="qcurve"/>
      <point x="275.92" y="1363.27"/>
      <point x="298.05" y="1326.6899999999998"/>
      <point x="300.2" y="1304.89" type="qcurve" smooth="yes"/>
      <point x="305.32" y="1265.56"/>
      <point x="260.52000000000004" y="1217.8300000000002"/>
      <point x="218.89" y="1216.5900000000001" type="qcurve" smooth="yes"/>
      <point x="178.32" y="1215.3500000000001"/>
      <point x="123.55" y="1277.59"/>
      <point x="123.55" y="1335.91" type="qcurve" smooth="yes"/>
      <point x="123.55" y="1421.28"/>
      <point x="312.84" y="1542.58"/>
      <point x="466.5400000000001" y="1542.58" type="qcurve" smooth="yes"/>
      <point x="623.34" y="1542.58"/>
      <point x="786.26" y="1385.9099999999999"/>
      <point x="785.01" y="1201.97" type="qcurve" smooth="yes"/>
      <point x="787.29" y="785.53" type="line"/>
      <point x="898.32" y="756.11" type="line"/>
      <point x="898.32" y="677.4" type="line"/>
      <point x="615.51" y="677.4" type="line"/>
      <point x="577.7" y="723.6199999999999" type="line"/>
      <point x="568.21" y="775.9" type="line"/>
      <point x="535.2800000000001" y="728.08"/>
      <point x="404.28" y="664.66"/>
      <point x="317.76" y="664.66" type="qcurve" smooth="yes"/>
      <point x="204.63" y="664.66"/>
      <point x="75.48" y="782.65"/>
    </contour>
  </outline>
</glyph>
<glyph name="registered" format="2">
  <advance width="1932"/>
  <unicode hex="00AE"/>
  <outline>
    <contour>
      <point x="101.0" y="685.0" type="qcurve" smooth="yes"/>
      <point x="101.0" y="1061.0"/>
      <point x="589.24" y="1570.0"/>
      <point x="967.62" y="1570.0" type="qcurve" smooth="yes"/>
      <point x="1344.42" y="1570.0"/>
      <point x="1830.66" y="1087.0"/>
      <point x="1830.66" y="706.0" type="qcurve" smooth="yes"/>
      <point x="1830.66" y="288.0"/>
      <point x="1351.0" y="-242.0"/>
      <point x="978.78" y="-242.0" type="qcurve" smooth="yes"/>
      <point x="595.82" y="-242.0"/>
      <point x="101.0" y="276.0"/>
    </contour>
    <contour>
      <point x="269.45" y="680.69" type="qcurve" smooth="yes"/>
      <point x="269.45" y="341.2"/>
      <point x="689.5200000000001" y="-103.43"/>
      <point x="993.3200000000002" y="-103.43" type="qcurve" smooth="yes"/>
      <point x="1288.27" y="-103.43"/>
      <point x="1662.21" y="365.58"/>
      <point x="1662.21" y="697.38" type="qcurve" smooth="yes"/>
      <point x="1662.21" y="1000.49"/>
      <point x="1266.84" y="1431.43"/>
      <point x="949.1899999999999" y="1431.43" type="qcurve" smooth="yes"/>
      <point x="647.97" y="1431.43"/>
      <point x="269.45" y="991.8"/>
    </contour>
    <contour>
      <point x="560.8199999999999" y="176.0" type="line"/>
      <point x="554.34" y="266.0" type="line"/>
      <point x="658.0" y="290.0" type="line"/>
      <point x="668.16" y="723.0" type="line"/>
      <point x="658.0" y="1081.8" type="line"/>
      <point x="545.18" y="1104.8" type="line"/>
      <point x="545.18" y="1209.0" type="line"/>
      <point x="994.5600000000001" y="1209.0" type="line" smooth="yes"/>
      <point x="1142.48" y="1209.0"/>
      <point x="1295.12" y="1075.8"/>
      <point x="1295.12" y="955.6" type="qcurve" smooth="yes"/>
      <point x="1295.12" y="821.16"/>
      <point x="1110.58" y="648.5"/>
      <point x="992.5600000000001" y="648.5" type="qcurve" smooth="yes"/>
      <point x="944.9200000000001" y="648.5"/>
      <point x="827.24" y="657.5"/>
      <point x="804.92" y="657.5" type="qcurve"/>
      <point x="804.92" y="751.8" type="line"/>
      <point x="924.84" y="751.8" type="line" smooth="yes"/>
      <point x="1036.2800000000002" y="751.8"/>
      <point x="1115.24" y="855.6"/>
      <point x="1115.24" y="946.6" type="qcurve" smooth="yes"/>
      <point x="1115.24" y="1029.7"/>
      <point x="1031.8" y="1098.7"/>
      <point x="935.52" y="1098.7" type="qcurve" smooth="yes"/>
      <point x="859.14" y="1098.7" type="line"/>
      <point x="839.4" y="1085.7" type="line"/>
      <point x="827.24" y="716.8" type="line"/>
      <point x="837.4" y="290.0" type="line"/>
      <point x="947.5" y="266.0" type="line"/>
      <point x="947.5" y="176.0" type="line"/>
    </contour>
    <contour>
      <point x="898.76" y="703.8" type="line"/>
      <point x="1066.0" y="731.8" type="line"/>
      <point x="1280.76" y="393.0" type="line" smooth="yes"/>
      <point x="1343.82" y="293.34"/>
      <point x="1420.76" y="266.0"/>
      <point x="1459.82" y="266.0" type="qcurve"/>
      <point x="1459.82" y="176.0" type="line"/>
      <point x="1261.3" y="176.0" type="line"/>
      <point x="1221.82" y="190.0" type="line"/>
    </contour>
  </outline>
</glyph>
<glyph name="acute" format="2">
  <advance width="1024"/>
  <unicode hex="00B4"/>
  <outline>
    <contour>
      <point x="770.01" y="1440.78" type="qcurve" smooth="yes"/>
      <point x="770.85" y="1401.43"/>
      <point x="730.6899999999999" y="1343.1399999999999"/>
      <point x="687.87" y="1315.38" type="qcurve" smooth="yes"/>
      <point x="410.59" y="1136.5500000000002" type="line"/>
      <point x="339.81" y="1211.65" type="line"/>
      <point x="515.32" y="1417.59" type="line" smooth="yes"/>
      <point x="550.32" y="1460.2"/>
      <point x="631.4399999999999" y="1526.8700000000001"/>
      <point x="670.37" y="1526.8700000000001" type="qcurve" smooth="yes"/>
      <point x="707.5400000000001" y="1526.8700000000001"/>
      <point x="769.17" y="1475.63"/>
    </contour>
  </outline>
</glyph>
<glyph name="onesuperior" format="2">
  <advance width="712"/>
  <unicode hex="00B9"/>
  <outline>
    <contour>
      <point x="95.52" y="670.0" type="line"/>
      <point x="95.52" y="756.0" type="line"/>
      <point x="272.94" y="786.0" type="line"/>
      <point x="275.94" y="1109.0" type="line"/>
      <point x="272.94" y="1366.28" type="line"/>
      <point x="93.52" y="1386.8300000000002" type="line"/>
      <point x="93.52" y="1478.45" type="line"/>
      <point x="434.59999999999997" y="1511.45" type="line"/>
      <point x="466.59999999999997" y="1476.45" type="line"/>
      <point x="460.59999999999997" y="1109.0" type="line"/>
      <point x="462.59999999999997" y="786.0" type="line"/>
      <point x="641.02" y="756.0" type="line"/>
      <point x="641.02" y="670.0" type="line"/>
    </contour>
  </outline>
</glyph>
<glyph name="ordmasculine" format="2">
  <advance width="947"/>
  <unicode hex="00BA"/>
  <outline>
    <contour>
      <point x="52.839999999999996" y="1098.73" type="qcurve" smooth="yes"/>
      <point x="52.839999999999996" y="1292.41"/>
      <point x="277.96999999999997" y="1542.93"/>
      <point x="472.76000000000005" y="1542.93" type="qcurve" smooth="yes"/>
      <point x="668.13" y="1542.93"/>
      <point x="893.74" y="1309.41"/>
      <point x="893.74" y="1103.73" type="qcurve" smooth="yes"/>
      <point x="893.74" y="911.36"/>
      <point x="670.3" y="655.37"/>
      <point x="475.97" y="655.37" type="qcurve" smooth="yes"/>
      <point x="280.59999999999997" y="655.37"/>
      <point x="52.839999999999996" y="891.78"/>
    </contour>
    <contour>
      <point x="291.64" y="1114.18" type="qcurve" smooth="yes"/>
      <point x="292.37" y="946.51"/>
      <point x="387.41" y="754.45"/>
      <point x="471.6" y="754.45" type="qcurve" smooth="yes"/>
      <point x="561.76" y="754.45"/>
      <point x="651.77" y="928.2800000000001"/>
      <point x="651.77" y="1102.22" type="qcurve" smooth="yes"/>
      <point x="651.77" y="1264.16"/>
      <point x="556.53" y="1435.3700000000001"/>
      <point x="472.76000000000005" y="1435.3700000000001" type="qcurve" smooth="yes"/>
      <point x="380.49" y="1435.3700000000001"/>
      <point x="290.64" y="1280.97"/>
    </contour>
  </outline>
</glyph>
<glyph name="questiondown" format="2">
  <advance width="955"/>
  <unicode hex="00BF"/>
  <outline>
    <contour>
      <point x="758.2" y="1181.69" type="qcurve" smooth="yes"/>
      <point x="758.2" y="1119.41"/>
      <point x="668.6" y="1028.6399999999999"/>
      <point x="598.64" y="1028.6399999999999" type="qcurve" smooth="yes"/>
      <point x="528.26" y="1028.6399999999999"/>
      <point x="438.65999999999997" y="1119.41"/>
      <point x="438.65999999999997" y="1181.69" type="qcurve" smooth="yes"/>
      <point x="438.65999999999997" y="1243.6999999999998"/>
      <point x="528.26" y="1334.47"/>
      <point x="598.64" y="1334.47" type="qcurve" smooth="yes"/>
      <point x="668.6" y="1334.47"/>
      <point x="758.2" y="1243.6999999999998"/>
    </contour>
    <contour>
      <point x="917.1099999999999" y="90.56" type="qcurve" smooth="yes"/>
      <point x="917.1099999999999" y="-55.230000000000004"/>
      <point x="695.75" y="-227.53"/>
      <point x="498.12" y="-227.53" type="qcurve" smooth="yes"/>
      <point x="295.8" y="-227.53"/>
      <point x="49.99999999999999" y="-35.53"/>
      <point x="49.99999999999999" y="149.47" type="qcurve" smooth="yes"/>
      <point x="49.99999999999999" y="326.72"/>
      <point x="232.53" y="525.61"/>
      <point x="349.8" y="579.5" type="qcurve" smooth="yes"/>
      <point x="417.51" y="610.23"/>
      <point x="548.56" y="701.27"/>
      <point x="548.98" y="784.27" type="qcurve" smooth="yes"/>
      <point x="548.98" y="879.87" type="line"/>
      <point x="660.28" y="879.87" type="line"/>
      <point x="674.02" y="774.87" type="line" smooth="yes"/>
      <point x="686.67" y="689.02"/>
      <point x="605.4" y="523.78"/>
      <point x="496.54" y="455.27" type="qcurve" smooth="yes"/>
      <point x="419.88" y="407.09999999999997"/>
      <point x="309.03999999999996" y="277.83000000000004"/>
      <point x="309.03999999999996" y="159.07" type="qcurve" smooth="yes"/>
      <point x="309.03999999999996" y="38.33"/>
      <point x="436.0" y="-100.41"/>
      <point x="546.09" y="-100.41" type="qcurve" smooth="yes"/>
      <point x="650.2600000000001" y="-100.41"/>
      <point x="765.6500000000001" y="-20.54"/>
      <point x="765.6500000000001" y="30.909999999999997" type="qcurve" smooth="yes"/>
      <point x="765.6500000000001" y="61.77"/>
      <point x="657.3199999999999" y="119.01000000000002"/>
      <point x="655.94" y="174.52" type="qcurve" smooth="yes"/>
      <point x="654.29" y="217.0"/>
      <point x="712.62" y="285.03"/>
      <point x="771.3000000000001" y="285.03" type="qcurve" smooth="yes"/>
      <point x="835.87" y="285.03"/>
      <point x="917.1099999999999" y="186.14000000000001"/>
    </contour>
  </outline>
</glyph>
<glyph name="AE" format="2">
  <advance width="1898"/>
  <unicode hex="00C6"/>
  <outline>
    <contour>
      <point x="4.599999999999998" y="0.0" type="line"/>
      <point x="4.599999999999998" y="107.92999999999999" type="line"/>
      <point x="172.98" y="141.89000000000001" type="line"/>
      <point x="384.0" y="540.0" type="line"/>
      <point x="795.04" y="1353.36" type="line"/>
      <point x="666.4" y="1379.53" type="line"/>
      <point x="666.4" y="1500.0" type="line"/>
      <point x="1772.82" y="1500.0" type="line"/>
      <point x="1772.82" y="1152.17" type="line"/>
      <point x="1645.31" y="1152.17" type="line"/>
      <point x="1614.51" y="1369.6" type="line"/>
      <point x="1239.5" y="1369.6" type="line"/>
      <point x="1206.2199999999998" y="1348.36" type="line"/>
      <point x="1204.6399999999999" y="783.0" type="line"/>
      <point x="1206.2199999999998" y="147.81" type="line"/>
      <point x="1238.33" y="123.5" type="line"/>
      <point x="1666.12" y="123.5" type="line"/>
      <point x="1731.6399999999999" y="385.13" type="line"/>
      <point x="1858.84" y="385.13" type="line"/>
      <point x="1824.5" y="0.0" type="line"/>
      <point x="753.9000000000001" y="0.0" type="line"/>
      <point x="753.9000000000001" y="107.61999999999999" type="line"/>
      <point x="931.6" y="143.16" type="line"/>
      <point x="933.6" y="783.0" type="line"/>
      <point x="931.6" y="1287.0" type="line"/>
      <point x="907.6" y="1313.0" type="line"/>
      <point x="513.9" y="511.4" type="line"/>
      <point x="341.58000000000004" y="140.12" type="line"/>
      <point x="493.0" y="107.92999999999999" type="line"/>
      <point x="493.0" y="0.0" type="line"/>
    </contour>
    <contour>
      <point x="407.7" y="471.9" type="line"/>
      <point x="475.7" y="600.1999999999999" type="line"/>
      <point x="734.6" y="585.1999999999999" type="line"/>
      <point x="734.6" y="471.9" type="line"/>
    </contour>
    <contour>
      <point x="734.6" y="585.1999999999999" type="line"/>
      <point x="1028.2" y="601.1999999999999" type="line"/>
      <point x="1028.2" y="471.9" type="line"/>
      <point x="734.6" y="471.9" type="line"/>
    </contour>
    <contour>
      <point x="1078.92" y="731.8" type="line"/>
      <point x="1078.92" y="840.2" type="line"/>
      <point x="1518.3300000000002" y="850.2" type="line"/>
      <point x="1546.65" y="1004.31" type="line"/>
      <point x="1661.73" y="1004.31" type="line"/>
      <point x="1661.73" y="565.52" type="line"/>
      <point x="1546.65" y="565.52" type="line"/>
      <point x="1518.3300000000002" y="721.8" type="line"/>
    </contour>
  </outline>
</glyph>
<glyph name="multiply" format="2">
  <advance width="961"/>
  <unicode hex="00D7"/>
  <outline>
    <contour>
      <point x="228.08" y="242.9" type="line"/>
      <point x="98.60000000000002" y="372.69" type="line"/>
      <point x="733.88" y="1021.41" type="line"/>
      <point x="862.52" y="891.62" type="line"/>
    </contour>
    <contour>
      <point x="731.69" y="241.55" type="line"/>
      <point x="97.25" y="890.27" type="line"/>
      <point x="228.59" y="1022.76" type="line"/>
      <point x="863.87" y="374.03999999999996" type="line"/>
    </contour>
  </outline>
</glyph>
<glyph name="germandbls" format="2">
  <advance width="1328"/>
  <unicode hex="00DF"/>
  <outline>
    <contour>
      <point x="1093.29" y="1225.1" type="qcurve" smooth="yes"/>
      <point x="1093.29" y="1095.9299999999998"/>
      <point x="973.4100000000001" y="970.92"/>
      <point x="884.07" y="930.3" type="qcurve" smooth="yes"/>
      <point x="843.6300000000001" y="912.4599999999999"/>
      <point x="794.15" y="860.0300000000001"/>
      <point x="794.15" y="811.39" type="qcurve" smooth="yes"/>
      <point x="794.15" y="757.14"/>
      <point x="877.89" y="686.94"/>
      <point x="982.19" y="649.64" type="qcurve" smooth="yes"/>
      <point x="1124.58" y="599.55"/>
      <point x="1284.79" y="442.99"/>
      <point x="1284.79" y="300.95" type="qcurve" smooth="yes"/>
      <point x="1284.79" y="162.48"/>
      <point x="1100.29" y="-21.72"/>
      <point x="954.79" y="-21.72" type="qcurve" smooth="yes"/>
      <point x="864.1" y="-21.72"/>
      <point x="743.2900000000001" y="19.52"/>
      <point x="695.36" y="60.919999999999995" type="qcurve"/>
      <point x="667.75" y="0.0" type="line"/>
      <point x="573.44" y="0.0" type="line"/>
      <point x="573.44" y="337.45" type="line"/>
      <point x="683.7099999999999" y="337.45" type="line"/>
      <point x="693.34" y="281.86" type="line" smooth="yes"/>
      <point x="708.37" y="196.79"/>
      <point x="822.56" y="99.11"/>
      <point x="907.41" y="99.11" type="qcurve" smooth="yes"/>
      <point x="973.6299999999999" y="99.11"/>
      <point x="1063.33" y="170.8"/>
      <point x="1063.33" y="242.64" type="qcurve" smooth="yes"/>
      <point x="1063.33" y="313.76"/>
      <point x="972.4599999999999" y="386.13000000000005"/>
      <point x="859.89" y="431.01" type="qcurve" smooth="yes"/>
      <point x="717.27" y="488.21"/>
      <point x="584.65" y="629.85"/>
      <point x="584.65" y="747.22" type="qcurve" smooth="yes"/>
      <point x="584.65" y="853.02"/>
      <point x="689.75" y="976.42"/>
      <point x="773.51" y="1016.52" type="qcurve" smooth="yes"/>
      <point x="842.29" y="1049.83"/>
      <point x="897.4499999999999" y="1135.52"/>
      <point x="896.2099999999999" y="1210.52" type="qcurve" smooth="yes"/>
      <point x="894.9699999999999" y="1288.87"/>
      <point x="800.9499999999999" y="1393.22"/>
      <point x="698.3299999999999" y="1393.22" type="qcurve" smooth="yes"/>
      <point x="576.28" y="1393.22"/>
      <point x="457.17" y="1233.46"/>
      <point x="458.55" y="1059.7" type="qcurve"/>
      <point x="462.55" y="527.0" type="line"/>
      <point x="475.55" y="45.0" type="line"/>
      <point x="446.55" y="0.0" type="line"/>
      <point x="61.13" y="0.0" type="line"/>
      <point x="61.13" y="92.4" type="line"/>
      <point x="200.07" y="127.4" type="line"/>
      <point x="203.0" y="527.0" type="line"/>
      <point x="206.0" y="1088.5" type="line" smooth="yes"/>
      <point x="207.0" y="1285.84"/>
      <point x="460.57000000000005" y="1521.72"/>
      <point x="688.23" y="1521.72" type="qcurve" smooth="yes"/>
      <point x="875.15" y="1521.72"/>
      <point x="1093.29" y="1361.2"/>
    </contour>
  </outline>
</glyph>
<glyph name="Schwa" format="2">
  <advance width="1280"/>
  <unicode hex="018F"/>
  <outline>
    <contour>
      <point x="43.31" y="1225.63" type="line"/>
      <point x="120.85000000000001" y="1365.3300000000002"/>
      <point x="370.04999999999995" y="1516.9"/>
      <point x="553.6500000000001" y="1516.9" type="qcurve" smooth="yes"/>
      <point x="857.17" y="1516.9"/>
      <point x="1211.59" y="1112.33"/>
      <point x="1211.59" y="772.1400000000001" type="qcurve" smooth="yes"/>
      <point x="1211.59" y="413.34"/>
      <point x="867.04" y="-26.13"/>
      <point x="591.42" y="-26.13" type="qcurve" smooth="yes"/>
      <point x="341.24" y="-26.13"/>
      <point x="56.52000000000001" y="270.08"/>
      <point x="56.52000000000001" y="578.0" type="qcurve" smooth="yes"/>
      <point x="56.52000000000001" y="686.0" type="line"/>
      <point x="1052.02" y="686.0" type="line"/>
      <point x="1052.02" y="544.7" type="line"/>
      <point x="574.28" y="552.7" type="line"/>
      <point x="287.52" y="546.7" type="line"/>
      <point x="287.52" y="481.0" type="line" smooth="yes"/>
      <point x="287.52" y="321.82"/>
      <point x="428.78999999999996" y="116.48"/>
      <point x="582.0500000000001" y="116.48" type="qcurve" smooth="yes"/>
      <point x="740.73" y="116.48"/>
      <point x="917.47" y="435.59000000000003"/>
      <point x="916.9300000000001" y="743.95" type="qcurve" smooth="yes"/>
      <point x="916.39" y="1061.79"/>
      <point x="697.55" y="1357.64"/>
      <point x="516.51" y="1357.64" type="qcurve" smooth="yes"/>
      <point x="387.82000000000005" y="1357.64"/>
      <point x="199.23" y="1243.61"/>
      <point x="144.0" y="1148.02" type="qcurve"/>
    </contour>
  </outline>
</glyph>
<glyph name="florin" format="2">
  <advance width="741"/>
  <unicode hex="0192"/>
  <outline>
    <contour>
      <point x="500.34000000000003" y="-41.83" type="line" smooth="yes"/>
      <point x="502.03" y="-158.5"/>
      <point x="354.15" y="-309.31"/>
      <point x="223.77" y="-309.31" type="qcurve" smooth="yes"/>
      <point x="169.38" y="-309.31"/>
      <point x="66.1" y="-296.73"/>
      <point x="32.45" y="-286.32" type="qcurve" smooth="yes"/>
      <point x="10.52" y="-279.77" type="line"/>
      <point x="21.560000000000002" y="-157.58" type="line"/>
      <point x="41.84" y="-163.96" type="line" smooth="yes"/>
      <point x="52.01" y="-167.2"/>
      <point x="92.31" y="-174.06"/>
      <point x="110.79" y="-174.06" type="qcurve" smooth="yes"/>
      <point x="175.14" y="-174.06"/>
      <point x="244.49" y="-96.57"/>
      <point x="243.11" y="-28.22" type="qcurve" smooth="yes"/>
      <point x="227.83" y="858.14" type="line"/>
      <point x="45.18" y="872.93" type="line"/>
      <point x="38.28" y="979.02" type="line"/>
      <point x="222.62" y="999.5" type="line"/>
      <point x="216.62" y="1260.26" type="line" smooth="yes"/>
      <point x="213.38" y="1376.9299999999998"/>
      <point x="355.79" y="1522.34"/>
      <point x="490.37" y="1522.34" type="qcurve" smooth="yes"/>
      <point x="544.76" y="1522.34"/>
      <point x="648.04" y="1509.22"/>
      <point x="681.6899999999999" y="1499.35" type="qcurve" smooth="yes"/>
      <point x="703.6199999999999" y="1492.8" type="line"/>
      <point x="692.5799999999999" y="1370.61" type="line"/>
      <point x="672.3" y="1376.99" type="line" smooth="yes"/>
      <point x="662.13" y="1380.23"/>
      <point x="621.8299999999999" y="1387.09"/>
      <point x="603.3499999999999" y="1387.09" type="qcurve" smooth="yes"/>
      <point x="539.0" y="1387.09"/>
      <point x="476.08" y="1315.0"/>
      <point x="478.03999999999996" y="1246.6499999999999" type="qcurve" smooth="yes"/>
      <point x="485.99" y="997.09" type="line"/>
      <point x="688.53" y="997.09" type="line"/>
      <point x="688.53" y="879.59" type="line"/>
      <point x="485.68" y="869.83" type="line"/>
    </contour>
  </outline>
</glyph>
<glyph name="ogonek" format="2">
  <advance width="1024"/>
  <unicode hex="02DB"/>
  <outline>
    <contour>
      <point x="446.06" y="-230.58" type="qcurve" smooth="yes"/>
      <point x="446.06" y="-273.47"/>
      <point x="502.28000000000003" y="-324.46999999999997"/>
      <point x="551.13" y="-324.46999999999997" type="qcurve" smooth="yes"/>
      <point x="602.4899999999999" y="-324.46999999999997"/>
      <point x="704.26" y="-286.39"/>
      <point x="753.0" y="-247.67" type="qcurve"/>
      <point x="803.16" y="-329.0" type="line"/>
      <point x="766.2" y="-371.3"/>
      <point x="609.4699999999999" y="-453.05"/>
      <point x="513.24" y="-453.05" type="qcurve" smooth="yes"/>
      <point x="403.83" y="-453.05"/>
      <point x="280.64" y="-361.52000000000004"/>
      <point x="280.64" y="-280.84" type="qcurve" smooth="yes"/>
      <point x="280.64" y="-194.17"/>
      <point x="403.25" y="-35.71"/>
      <point x="483.06" y="26.37" type="qcurve" smooth="yes"/>
      <point x="508.24" y="45.730000000000004" type="line"/>
      <point x="591.4699999999999" y="-4.460000000000001" type="line"/>
      <point x="573.96" y="-21.819999999999997" type="line" smooth="yes"/>
      <point x="504.35" y="-90.83"/>
      <point x="446.06" y="-184.25"/>
    </contour>
  </outline>
</glyph>
<glyph name="macronbelowcomb" format="2">
  <advance width="1024"/>
  <unicode hex="0331"/>
  <outline>
    <contour>
      <point x="223.42" y="-330.39" type="line"/>
      <point x="223.42" y="-173.53" type="line"/>
      <point x="800.58" y="-173.53" type="line"/>
      <point x="800.58" y="-330.39" type="line"/>
    </contour>
  </outline>
</glyph>
<glyph name="Gamma" format="2">
  <advance width="1194"/>
  <unicode hex="0393"/>
  <outline>
    <contour>
      <point x="90.6" y="0.0" type="line"/>
      <point x="90.6" y="107.61999999999999" type="line"/>
      <point x="268.3" y="143.16" type="line"/>
      <point x="270.3" y="755.62" type="line"/>
      <point x="268.3" y="1345.22" type="line"/>
      <point x="90.6" y="1379.22" type="line"/>
      <point x="90.6" y="1500.0" type="line"/>
      <point x="1089.3999999999999" y="1500.0" type="line"/>
      <point x="1089.3999999999999" y="1082.86" type="line"/>
      <point x="961.37" y="1082.86" type="line"/>
      <point x="923.22" y="1369.6" type="line"/>
      <point x="577.5799999999999" y="1369.6" type="line"/>
      <point x="543.6099999999999" y="1348.36" type="line"/>
      <point x="543.4699999999999" y="760.0" type="line"/>
      <point x="545.4699999999999" y="141.39" type="line"/>
      <point x="730.23" y="107.92999999999999" type="line"/>
      <point x="730.23" y="0.0" type="line"/>
    </contour>
  </outline>
</glyph>
<glyph name="Delta" format="2">
  <advance width="1337"/>
  <unicode hex="0394"/>
  <outline>
    <contour>
      <point x="108.54" y="0.0" type="line"/>
      <point x="108.54" y="116.51" type="line"/>
      <point x="265.02" y="586.32" type="line"/>
      <point x="553.84" y="1505.52" type="line"/>
      <point x="779.6700000000001" y="1505.52" type="line"/>
      <point x="1077.91" y="596.1" type="line"/>
      <point x="1238.8400000000001" y="116.51" type="line"/>
      <point x="1238.8400000000001" y="0.0" type="line"/>
    </contour>
    <contour>
      <point x="265.60999999999996" y="149.13" type="line"/>
      <point x="593.83" y="145.51" type="line"/>
      <point x="937.22" y="149.82" type="line"/>
      <point x="811.72" y="540.46" type="line"/>
      <point x="598.64" y="1195.75" type="line"/>
      <point x="391.05" y="550.43" type="line"/>
    </contour>
  </outline>
</glyph>
<glyph name="Theta" format="2">
  <advance width="1530"/>
  <unicode hex="0398"/>
  <outline>
    <contour>
      <point x="768.47" y="-25.36" type="qcurve" smooth="yes"/>
      <point x="458.03" y="-25.36"/>
      <point x="68.63" y="400.8"/>
      <point x="68.63" y="740.54" type="qcurve" smooth="yes"/>
      <point x="68.63" y="1070.6999999999998"/>
      <point x="450.91999999999996" y="1522.17"/>
      <point x="765.0" y="1522.17" type="qcurve" smooth="yes"/>
      <point x="1079.39" y="1522.17"/>
      <point x="1461.26" y="1099.6999999999998"/>
      <point x="1461.26" y="755.54" type="qcurve" smooth="yes"/>
      <point x="1461.26" y="427.38"/>
      <point x="1083.28" y="-25.36"/>
    </contour>
    <contour>
      <point x="766.58" y="113.66" type="qcurve" smooth="yes"/>
      <point x="957.8299999999999" y="113.35"/>
      <point x="1172.6" y="419.29999999999995"/>
      <point x="1172.6" y="749.78" type="qcurve" smooth="yes"/>
      <point x="1172.6" y="1040.79"/>
      <point x="946.8800000000001" y="1377.01"/>
      <point x="765.96" y="1377.01" type="qcurve" smooth="yes"/>
      <point x="574.7099999999999" y="1377.01"/>
      <point x="358.02" y="1076.89"/>
      <point x="358.02" y="775.4699999999999" type="qcurve" smooth="yes"/>
      <point x="358.02" y="457.89"/>
      <point x="591.03" y="113.97"/>
    </contour>
    <contour>
      <point x="487.59999999999997" y="600.5" type="line"/>
      <point x="487.59999999999997" y="885.89" type="line"/>
      <point x="503.9" y="885.89" type="line"/>
      <point x="757.49" y="811.36" type="line"/>
      <point x="773.79" y="811.36" type="line"/>
      <point x="1026.4199999999998" y="885.89" type="line"/>
      <point x="1043.1399999999999" y="885.89" type="line"/>
      <point x="1043.1399999999999" y="600.5" type="line"/>
      <point x="1026.4199999999998" y="600.5" type="line"/>
      <point x="773.79" y="675.03" type="line"/>
      <point x="759.0400000000001" y="675.03" type="line"/>
      <point x="503.9" y="600.5" type="line"/>
    </contour>
  </outline>
</glyph>
<glyph name="Sigma" format="2">
  <advance width="1110"/>
  <unicode hex="03A3"/>
  <outline>
    <contour>
      <point x="66.52" y="0.0" type="line"/>
      <point x="38.11" y="92.31" type="line"/>
      <point x="464.53" y="729.09" type="line"/>
      <point x="73.91" y="1394.3000000000002" type="line"/>
      <point x="73.91" y="1500.0" type="line"/>
      <point x="1056.05" y="1500.0" type="line"/>
      <point x="1056.05" y="1082.86" type="line"/>
      <point x="928.02" y="1082.86" type="line"/>
      <point x="889.87" y="1369.6" type="line"/>
      <point x="417.71000000000004" y="1369.6" type="line"/>
      <point x="409.85999999999996" y="1359.43" type="line"/>
      <point x="718.99" y="807.87" type="line"/>
      <point x="718.99" y="765.9499999999999" type="line"/>
      <point x="305.1" y="154.69" type="line"/>
      <point x="312.99" y="144.66" type="line"/>
      <point x="898.47" y="144.66" type="line"/>
      <point x="967.1500000000001" y="419.21000000000004" type="line"/>
      <point x="1104.05" y="419.21000000000004" type="line"/>
      <point x="1062.56" y="0.0" type="line"/>
    </contour>
  </outline>
</glyph>
<glyph name="Omega" format="2">
  <advance width="1495"/>
  <unicode hex="03A9"/>
  <anchor x="153.69" y="1500.0" name="GRKtopleft"/>
  <outline>
    <contour>
      <point x="55.089999999999996" y="0.0" type="line"/>
      <point x="15.95" y="401.9" type="line"/>
      <point x="156.74" y="401.9" type="line"/>
      <point x="219.86" y="146.5" type="line"/>
      <point x="486.05" y="141.4" type="line"/>
      <point x="494.33000000000004" y="255.35" type="line"/>
      <point x="325.92" y="311.23"/>
      <point x="92.49000000000001" y="628.79"/>
      <point x="93.33" y="876.3399999999999" type="qcurve" smooth="yes"/>
      <point x="92.49000000000001" y="1164.8"/>
      <point x="445.22" y="1522.17"/>
      <point x="747.87" y="1522.17" type="qcurve" smooth="yes"/>
      <point x="1056.6699999999998" y="1522.17"/>
      <point x="1401.3000000000002" y="1168.31"/>
      <point x="1401.3000000000002" y="882.68" type="qcurve" smooth="yes"/>
      <point x="1401.3000000000002" y="644.61"/>
      <point x="1162.47" y="312.01"/>
      <point x="1005.4200000000001" y="256.43" type="qcurve"/>
      <point x="1014.7799999999999" y="141.4" type="line"/>
      <point x="1275.04" y="146.5" type="line"/>
      <point x="1338.43" y="401.9" type="line"/>
      <point x="1479.22" y="401.9" type="line"/>
      <point x="1440.08" y="0.0" type="line"/>
      <point x="848.14" y="0.0" type="line"/>
      <point x="822.34" y="353.71" type="line"/>
      <point x="972.3100000000001" y="398.71"/>
      <point x="1112.95" y="670.72"/>
      <point x="1112.95" y="882.95" type="qcurve" smooth="yes"/>
      <point x="1112.95" y="1131.75"/>
      <point x="914.69" y="1372.87"/>
      <point x="747.18" y="1372.87" type="qcurve" smooth="yes"/>
      <point x="578.25" y="1372.6000000000001"/>
      <point x="380.84" y="1131.44"/>
      <point x="381.67999999999995" y="878.36" type="qcurve" smooth="yes"/>
      <point x="380.84" y="665.0500000000001"/>
      <point x="531.8699999999999" y="397.63"/>
      <point x="675.39" y="353.71" type="qcurve"/>
      <point x="649.59" y="0.0" type="line"/>
    </contour>
  </outline>
</glyph>
<glyph name="alpha" format="2">
  <advance width="1216"/>
  <unicode hex="03B1"/>
  <anchor x="487.3299999999999" y="1015.5" name="GRKtop"/>
  <outline>
    <contour>
      <point x="449.35" y="-9.31" type="qcurve" smooth="yes"/>
      <point x="278.49" y="-9.31"/>
      <point x="56.17" y="261.72"/>
      <point x="56.17" y="495.13" type="qcurve" smooth="yes"/>
      <point x="56.17" y="734.54"/>
      <point x="292.28000000000003" y="1034.46"/>
      <point x="480.17" y="1034.46" type="qcurve" smooth="yes"/>
      <point x="649.37" y="1034.46"/>
      <point x="821.11" y="788.11"/>
      <point x="853.8" y="551.75" type="qcurve"/>
      <point x="915.9200000000001" y="551.75" type="line"/>
      <point x="977.6999999999999" y="234.70000000000005"/>
      <point x="1038.21" y="128.37"/>
      <point x="1096.68" y="128.37" type="qcurve" smooth="yes"/>
      <point x="1163.25" y="128.37" type="line"/>
      <point x="1163.25" y="30.24" type="line"/>
      <point x="963.75" y="-10.17" type="line"/>
      <point x="865.03" y="-10.79"/>
      <point x="786.9" y="108.50999999999999"/>
      <point x="742.51" y="402.58" type="qcurve"/>
      <point x="730.1" y="402.58" type="line"/>
      <point x="671.25" y="713.89"/>
      <point x="580.34" y="913.99"/>
      <point x="505.33" y="913.99" type="qcurve" smooth="yes"/>
      <point x="423.49" y="913.99"/>
      <point x="338.56" y="702.84"/>
      <point x="338.56" y="505.1000000000001" type="qcurve" smooth="yes"/>
      <point x="338.56" y="332.39"/>
      <point x="421.03000000000003" y="133.63000000000002"/>
      <point x="493.3399999999999" y="133.63000000000002" type="qcurve" smooth="yes"/>
      <point x="569.9599999999999" y="133.63000000000002"/>
      <point x="693.25" y="371.21"/>
      <point x="753.25" y="606.08" type="qcurve"/>
      <point x="776.76" y="606.08" type="line"/>
      <point x="892.0800000000002" y="995.01" type="line"/>
      <point x="1117.7900000000002" y="1016.43" type="line"/>
      <point x="1155.27" y="982.61" type="line"/>
      <point x="915.2799999999999" y="406.58" type="line"/>
      <point x="835.7" y="406.58" type="line"/>
      <point x="774.71" y="211.28"/>
      <point x="587.5600000000001" y="-9.31"/>
    </contour>
  </outline>
</glyph>
<glyph name="delta" format="2">
  <advance width="1060"/>
  <unicode hex="03B4"/>
  <outline>
    <contour>
      <point x="530.98" y="-21.45" type="qcurve" smooth="yes"/>
      <point x="304.88" y="-21.45"/>
      <point x="55.019999999999996" y="226.14"/>
      <point x="55.019999999999996" y="432.0" type="qcurve" smooth="yes"/>
      <point x="55.019999999999996" y="638.44"/>
      <point x="302.25" y="912.27"/>
      <point x="504.87000000000006" y="945.93" type="qcurve"/>
      <point x="645.6700000000001" y="946.55" type="line"/>
      <point x="641.47" y="875.86" type="line"/>
      <point x="505.63000000000005" y="845.9300000000001"/>
      <point x="325.34" y="616.13"/>
      <point x="323.69" y="425.57" type="qcurve" smooth="yes"/>
      <point x="322.04" y="266.56"/>
      <point x="441.14" y="97.63000000000001"/>
      <point x="532.6" y="97.63000000000001" type="qcurve" smooth="yes"/>
      <point x="632.09" y="97.63000000000001"/>
      <point x="744.25" y="278.82"/>
      <point x="744.25" y="434.67" type="qcurve" smooth="yes"/>
      <point x="744.25" y="554.1600000000001"/>
      <point x="631.49" y="765.03"/>
      <point x="467.81" y="867.57" type="qcurve" smooth="yes"/>
      <point x="331.78" y="950.6500000000001"/>
      <point x="183.67" y="1128.05"/>
      <point x="183.67" y="1237.6" type="qcurve" smooth="yes"/>
      <point x="183.67" y="1379.21"/>
      <point x="399.34" y="1541.96"/>
      <point x="595.7800000000001" y="1541.96" type="qcurve" smooth="yes"/>
      <point x="722.1500000000001" y="1541.96"/>
      <point x="916.05" y="1478.64"/>
      <point x="948.0099999999999" y="1442.4" type="qcurve"/>
      <point x="930.64" y="1139.26" type="line"/>
      <point x="819.89" y="1139.26" type="line"/>
      <point x="781.8199999999999" y="1318.86" type="line"/>
      <point x="764.07" y="1352.4499999999998"/>
      <point x="670.14" y="1393.76"/>
      <point x="602.44" y="1393.76" type="qcurve" smooth="yes"/>
      <point x="521.9200000000001" y="1393.76"/>
      <point x="432.53999999999996" y="1318.34"/>
      <point x="432.53999999999996" y="1246.1000000000001" type="qcurve" smooth="yes"/>
      <point x="432.53999999999996" y="1190.1399999999999"/>
      <point x="503.37" y="1090.57"/>
      <point x="643.64" y="999.51" type="qcurve" smooth="yes"/>
      <point x="828.3299999999999" y="880.5"/>
      <point x="1005.8700000000001" y="621.82"/>
      <point x="1005.8700000000001" y="462.9" type="qcurve" smooth="yes"/>
      <point x="1005.8700000000001" y="245.28"/>
      <point x="734.8699999999999" y="-21.45"/>
    </contour>
  </outline>
</glyph>
<glyph name="lambda" format="2">
  <advance width="1029"/>
  <unicode hex="03BB"/>
  <outline>
    <contour>
      <point x="808.03" y="-10.17" type="line"/>
      <point x="751.83" y="-11.1"/>
      <point x="674.1" y="35.71"/>
      <point x="655.3399999999999" y="98.55000000000001" type="qcurve" smooth="yes"/>
      <point x="432.12" y="852.04" type="line"/>
      <point x="298.32" y="1222.42" type="line" smooth="yes"/>
      <point x="263.02" y="1323.1"/>
      <point x="195.5" y="1365.78"/>
      <point x="149.02" y="1375.91" type="qcurve" smooth="yes"/>
      <point x="46.18" y="1397.3300000000002" type="line"/>
      <point x="46.18" y="1503.42" type="line"/>
      <point x="301.29" y="1537.73" type="line"/>
      <point x="382.22" y="1537.73"/>
      <point x="479.02" y="1447.1499999999999"/>
      <point x="509.3" y="1353.42" type="qcurve" smooth="yes"/>
      <point x="649.78" y="915.72" type="line"/>
      <point x="883.8199999999999" y="216.16000000000003" type="line" smooth="yes"/>
      <point x="900.27" y="167.39000000000001"/>
      <point x="942.17" y="128.37"/>
      <point x="987.32" y="128.37" type="qcurve" smooth="yes"/>
      <point x="1042.36" y="128.37" type="line"/>
      <point x="1042.36" y="30.24" type="line"/>
    </contour>
    <contour>
      <point x="26.26" y="0.0" type="line"/>
      <point x="-11.53" y="33.82" type="line"/>
      <point x="183.49" y="510.43000000000006" type="line"/>
      <point x="408.08" y="1084.46" type="line"/>
      <point x="490.54" y="901.14" type="line"/>
      <point x="365.42" y="446.28999999999996" type="line"/>
      <point x="253.35" y="22.08" type="line"/>
    </contour>
  </outline>
</glyph>
<glyph name="mu" format="2">
  <advance width="1169"/>
  <unicode hex="03BC"/>
  <outline>
    <contour>
      <point x="152.78" y="-480.0" type="line"/>
      <point x="115.3" y="-446.49" type="line"/>
      <point x="126.55999999999999" y="358.1" type="line"/>
      <point x="115.52000000000001" y="993.73" type="line"/>
      <point x="364.62" y="1016.12" type="line"/>
      <point x="402.1" y="982.3" type="line"/>
      <point x="385.66" y="341.67" type="line"/>
      <point x="385.66" y="236.54"/>
      <point x="458.13" y="157.36"/>
      <point x="527.92" y="157.36" type="qcurve" smooth="yes"/>
      <point x="579.5699999999999" y="157.36"/>
      <point x="676.5999999999999" y="212.32"/>
      <point x="712.37" y="275.20000000000005" type="qcurve"/>
      <point x="712.37" y="327.72999999999996" type="line"/>
      <point x="703.1400000000001" y="993.73" type="line"/>
      <point x="952.24" y="1016.12" type="line"/>
      <point x="989.72" y="982.3" type="line"/>
      <point x="972.05" y="306.72999999999996" type="line"/>
      <point x="972.94" y="194.32"/>
      <point x="1014.92" y="128.79"/>
      <point x="1069.39" y="128.79" type="qcurve" smooth="yes"/>
      <point x="1115.36" y="128.79" type="line"/>
      <point x="1115.36" y="30.659999999999997" type="line"/>
      <point x="906.2400000000001" y="-10.17" type="line"/>
      <point x="834.03" y="-8.61"/>
      <point x="743.8000000000001" y="63.57000000000001"/>
      <point x="726.48" y="144.95" type="qcurve"/>
      <point x="725.48" y="144.95" type="line"/>
      <point x="695.51" y="79.4"/>
      <point x="579.5" y="-17.42"/>
      <point x="509.26000000000005" y="-17.42" type="qcurve" smooth="yes"/>
      <point x="460.19" y="-17.42"/>
      <point x="384.57" y="26.94"/>
      <point x="366.88" y="60.54" type="qcurve"/>
      <point x="395.37" y="-457.92" type="line"/>
    </contour>
  </outline>
</glyph>
<glyph name="finalsigma" format="2">
  <advance width="887"/>
  <unicode hex="03C2"/>
  <outline>
    <contour>
      <point x="662.5500000000001" y="-313.0" type="line"/>
      <point x="634.48" y="-130.86999999999998" type="line" smooth="yes"/>
      <point x="625.0" y="-68.97"/>
      <point x="599.4" y="-32.3"/>
      <point x="558.15" y="-29.57" type="qcurve" smooth="yes"/>
      <point x="507.81" y="-26.150000000000002" type="line" smooth="yes"/>
      <point x="275.51" y="-9.35"/>
      <point x="54.4" y="263.3"/>
      <point x="54.4" y="490.03000000000003" type="qcurve" smooth="yes"/>
      <point x="54.4" y="743.53"/>
      <point x="307.09000000000003" y="1038.52"/>
      <point x="524.98" y="1038.52" type="qcurve"/>
      <point x="643.3100000000001" y="1038.52"/>
      <point x="821.5799999999999" y="972.6"/>
      <point x="852.89" y="940.08" type="qcurve"/>
      <point x="852.89" y="655.84" type="line"/>
      <point x="737.67" y="655.84" type="line"/>
      <point x="703.9599999999999" y="862.0" type="line"/>
      <point x="682.74" y="880.52"/>
      <point x="619.4" y="904.35"/>
      <point x="574.4399999999999" y="904.35" type="qcurve" smooth="yes"/>
      <point x="465.28" y="904.35"/>
      <point x="332.9" y="717.23"/>
      <point x="332.9" y="516.63" type="qcurve" smooth="yes"/>
      <point x="332.9" y="375.45"/>
      <point x="456.82" y="179.58"/>
      <point x="611.11" y="169.85" type="qcurve" smooth="yes"/>
      <point x="672.63" y="165.45999999999998" type="line" smooth="yes"/>
      <point x="744.73" y="160.38"/>
      <point x="814.12" y="97.64000000000001"/>
      <point x="815.93" y="36.39" type="qcurve"/>
      <point x="769.06" y="-313.0" type="line"/>
    </contour>
  </outline>
</glyph>
<glyph name="phi" format="2">
  <advance width="1359"/>
  <unicode hex="03C6"/>
  <outline>
    <contour>
      <point x="618.28" y="-20.48" type="line"/>
      <point x="326.95" y="-12.59"/>
      <point x="48.34" y="276.19"/>
      <point x="48.34" y="498.9" type="qcurve" smooth="yes"/>
      <point x="48.34" y="747.74"/>
      <point x="348.43" y="1036.82"/>
      <point x="625.75" y="1036.82" type="qcurve"/>
      <point x="625.75" y="916.16" type="line"/>
      <point x="476.93000000000006" y="916.16"/>
      <point x="329.26" y="700.7800000000001"/>
      <point x="329.26" y="508.18" type="qcurve" smooth="yes"/>
      <point x="329.26" y="324.13"/>
      <point x="468.24" y="109.28"/>
      <point x="618.28" y="103.66" type="qcurve"/>
    </contour>
    <contour>
      <point x="744.02" y="-20.48" type="qcurve"/>
      <point x="744.02" y="103.66" type="line"/>
      <point x="888.66" y="109.28"/>
      <point x="1030.1100000000001" y="326.55999999999995"/>
      <point x="1030.1100000000001" y="514.66" type="qcurve" smooth="yes"/>
      <point x="1030.1100000000001" y="703.2099999999999"/>
      <point x="877.78" y="916.16"/>
      <point x="734.6600000000001" y="916.16" type="qcurve"/>
      <point x="734.6600000000001" y="1036.82" type="line"/>
      <point x="1009.2499999999999" y="1034.66"/>
      <point x="1311.0300000000002" y="751.52"/>
      <point x="1311.0300000000002" y="512.4" type="qcurve" smooth="yes"/>
      <point x="1311.0300000000002" y="279.96999999999997"/>
      <point x="1026.9799999999998" y="-14.75"/>
    </contour>
    <contour>
      <point x="578.75" y="-480.0" type="line"/>
      <point x="541.27" y="-446.18" type="line"/>
      <point x="559.16" y="45.41" type="line"/>
      <point x="568.81" y="45.41" type="line"/>
      <point x="586.01" y="965.8" type="line"/>
      <point x="581.01" y="965.8" type="line"/>
      <point x="584.01" y="1406.58" type="line"/>
      <point x="739.26" y="1424.29" type="line"/>
      <point x="775.9" y="1385.01" type="line"/>
      <point x="779.29" y="965.8" type="line"/>
      <point x="774.29" y="965.8" type="line"/>
      <point x="793.49" y="45.41" type="line"/>
      <point x="803.14" y="45.41" type="line"/>
      <point x="821.3399999999999" y="-457.92" type="line"/>
    </contour>
  </outline>
</glyph>
<glyph name="psi" format="2">
  <advance width="1410"/>
  <unicode hex="03C8"/>
  <outline>
    <contour>
      <point x="666.13" y="-17.0" type="line"/>
      <point x="399.02" y="-14.57"/>
      <point x="138.77" y="181.79000000000002"/>
      <point x="147.03" y="404.33" type="qcurve" smooth="yes"/>
      <point x="155.23" y="680.8100000000001" type="line"/>
      <point x="158.12" y="783.5300000000001"/>
      <point x="132.14999999999998" y="857.04"/>
      <point x="87.28999999999999" y="868.7" type="qcurve" smooth="yes"/>
      <point x="31.390000000000004" y="882.17" type="line"/>
      <point x="31.390000000000004" y="988.26" type="line"/>
      <point x="265.36" y="1022.57" type="line"/>
      <point x="343.29" y="1020.8900000000001"/>
      <point x="416.66999999999996" y="899.89"/>
      <point x="414.71" y="797.2" type="qcurve"/>
      <point x="406.98" y="397.31" type="line" smooth="yes"/>
      <point x="404.59" y="260.84"/>
      <point x="540.82" y="151.67999999999998"/>
      <point x="666.13" y="151.41" type="qcurve"/>
    </contour>
    <contour>
      <point x="797.72" y="-16.689999999999998" type="qcurve"/>
      <point x="797.1" y="151.72" type="line"/>
      <point x="923.17" y="155.13"/>
      <point x="1080.1699999999998" y="330.01"/>
      <point x="1080.1699999999998" y="515.07" type="qcurve" smooth="yes"/>
      <point x="1080.1699999999998" y="638.02"/>
      <point x="1013.5799999999999" y="872.49"/>
      <point x="952.29" y="965.9" type="qcurve"/>
      <point x="1128.11" y="1048.53" type="line"/>
      <point x="1223.55" y="952.13"/>
      <point x="1343.27" y="685.9399999999999"/>
      <point x="1343.27" y="523.71" type="qcurve" smooth="yes"/>
      <point x="1343.27" y="284.52000000000004"/>
      <point x="1040.98" y="-11.700000000000001"/>
    </contour>
    <contour>
      <point x="613.3" y="-480.0" type="line"/>
      <point x="575.8199999999999" y="-446.18" type="line"/>
      <point x="591.6099999999999" y="45.41" type="line"/>
      <point x="601.26" y="45.41" type="line"/>
      <point x="618.56" y="1406.58" type="line"/>
      <point x="792.4100000000001" y="1424.29" type="line"/>
      <point x="829.0500000000001" y="1385.01" type="line"/>
      <point x="848.74" y="45.41" type="line"/>
      <point x="858.39" y="45.41" type="line"/>
      <point x="874.4899999999999" y="-457.92" type="line"/>
    </contour>
  </outline>
</glyph>
<glyph name="Ieukran" format="2">
  <advance width="1291"/>
  <unicode hex="0404"/>
  <guideline x="211.0" y="787.0" angle="90.0" identifier="mFTeE97JTj"/>
  <outline>
    <contour>
      <point x="215.94" y="710.45" type="line"/>
      <point x="215.94" y="818.85" type="line"/>
      <point x="775.9" y="828.85" type="line"/>
      <point x="804.22" y="982.96" type="line"/>
      <point x="923.4999999999999" y="982.96" type="line"/>
      <point x="923.4999999999999" y="544.1700000000001" type="line"/>
      <point x="804.22" y="544.1700000000001" type="line"/>
      <point x="775.9" y="700.45" type="line"/>
    </contour>
    <contour>
      <point x="68.63" y="696.4399999999999" type="qcurve" smooth="yes"/>
      <point x="68.63" y="1056.44"/>
      <point x="431.0" y="1517.48"/>
      <point x="731.24" y="1517.48" type="qcurve" smooth="yes"/>
      <point x="854.99" y="1517.48"/>
      <point x="1010.0200000000001" y="1447.8600000000001"/>
      <point x="1052.5700000000002" y="1408.1" type="qcurve"/>
      <point x="1078.07" y="1499.58" type="line"/>
      <point x="1189.1000000000001" y="1499.58" type="line"/>
      <point x="1189.1000000000001" y="1036.01" type="line"/>
      <point x="1058.8000000000002" y="1036.01" type="line"/>
      <point x="1029.72" y="1180.82" type="line" smooth="yes"/>
      <point x="1009.46" y="1279.3300000000002"/>
      <point x="884.8400000000001" y="1378.63"/>
      <point x="772.4" y="1378.63" type="qcurve" smooth="yes"/>
      <point x="579.428297872338" y="1378.63"/>
      <point x="362.02" y="1058.78"/>
      <point x="362.55999999999995" y="734.96" type="qcurve" smooth="yes"/>
      <point x="363.1" y="415.54"/>
      <point x="586.67702702701" y="130.03"/>
      <point x="778.64" y="130.03" type="qcurve" smooth="yes"/>
      <point x="920.1899999999999" y="130.03"/>
      <point x="1103.4199999999998" y="238.43"/>
      <point x="1153.6699999999998" y="329.1" type="qcurve"/>
      <point x="1254.1" y="245.60000000000002" type="line"/>
      <point x="1181.8999999999999" y="121.19000000000001"/>
      <point x="916.56" y="-30.75"/>
      <point x="727.15" y="-30.75" type="qcurve" smooth="yes"/>
      <point x="432.18" y="-30.75"/>
      <point x="68.63" y="364.99"/>
    </contour>
  </outline>
</glyph>
<glyph name="Lje" format="2">
  <advance width="1923"/>
  <unicode hex="0409"/>
  <outline>
    <contour>
      <point x="723.85" y="0.0" type="line"/>
      <point x="723.85" y="107.61999999999999" type="line"/>
      <point x="901.55" y="142.62" type="line"/>
      <point x="903.55" y="749.14" type="line"/>
      <point x="901.55" y="1346.1999999999998" type="line"/>
      <point x="865.6099999999999" y="1369.6" type="line"/>
      <point x="566.09" y="1369.6" type="line"/>
      <point x="530.15" y="1345.36" type="line"/>
      <point x="497.55" y="764.45" type="line" smooth="yes"/>
      <point x="473.08" y="345.83"/>
      <point x="332.91" y="-19.48"/>
      <point x="138.04" y="-19.48" type="qcurve" smooth="yes"/>
      <point x="108.14999999999999" y="-19.48"/>
      <point x="67.5" y="-10.93"/>
      <point x="38.5" y="0.0" type="qcurve"/>
      <point x="38.5" y="224.85" type="line"/>
      <point x="62.50000000000001" y="216.85"/>
      <point x="96.53" y="211.85"/>
      <point x="118.88000000000001" y="211.85" type="qcurve" smooth="yes"/>
      <point x="233.63" y="211.85"/>
      <point x="316.11" y="501.09999999999997"/>
      <point x="332.02" y="772.4599999999999" type="qcurve" smooth="yes"/>
      <point x="364.62" y="1345.22" type="line"/>
      <point x="186.92" y="1379.22" type="line"/>
      <point x="186.92" y="1500.0" type="line"/>
      <point x="1360.1399999999999" y="1500.0" type="line"/>
      <point x="1360.1399999999999" y="1379.22" type="line"/>
      <point x="1176.86" y="1345.22" type="line"/>
      <point x="1174.2" y="916.86" type="line"/>
      <point x="1181.63" y="904.1" type="line"/>
      <point x="1390.06" y="904.1" type="line" smooth="yes"/>
      <point x="1639.78" y="904.1"/>
      <point x="1881.73" y="684.38"/>
      <point x="1881.73" y="466.49" type="qcurve" smooth="yes"/>
      <point x="1881.73" y="263.9"/>
      <point x="1647.3400000000001" y="0.0"/>
      <point x="1424.0800000000002" y="0.0" type="qcurve" smooth="yes"/>
    </contour>
    <contour>
      <point x="1174.47" y="764.4599999999999" type="line"/>
      <point x="1176.2" y="142.82" type="line"/>
      <point x="1204.5800000000002" y="121.02" type="line"/>
      <point x="1324.3000000000002" y="121.02" type="line" smooth="yes"/>
      <point x="1461.06" y="121.02"/>
      <point x="1599.74" y="298.73"/>
      <point x="1599.74" y="468.66" type="qcurve" smooth="yes"/>
      <point x="1599.74" y="625.83"/>
      <point x="1462.19" y="777.53"/>
      <point x="1332.86" y="777.53" type="qcurve" smooth="yes"/>
      <point x="1182.94" y="777.53" type="line"/>
    </contour>
  </outline>
</glyph>
<glyph name="Nje" format="2">
  <advance width="2047"/>
  <unicode hex="040A"/>
  <outline>
    <contour>
      <point x="50.279999999999994" y="0.0" type="line"/>
      <point x="675.86" y="0.0" type="line"/>
      <point x="675.86" y="107.61999999999999" type="line"/>
      <point x="502.98" y="142.62" type="line"/>
      <point x="500.98" y="754.0" type="line"/>
      <point x="502.98" y="1345.22" type="line"/>
      <point x="675.86" y="1379.22" type="line"/>
      <point x="675.86" y="1500.0" type="line"/>
      <point x="50.279999999999994" y="1500.0" type="line"/>
      <point x="50.279999999999994" y="1379.22" type="line"/>
      <point x="227.98000000000002" y="1345.22" type="line"/>
      <point x="229.98000000000002" y="754.0" type="line"/>
      <point x="227.98000000000002" y="142.62" type="line"/>
      <point x="50.279999999999994" y="107.61999999999999" type="line"/>
    </contour>
    <contour>
      <point x="365.47999999999996" y="744.15" type="line"/>
      <point x="773.4" y="744.15" type="line"/>
      <point x="1163.8000000000002" y="744.15" type="line"/>
      <point x="1163.8000000000002" y="881.0699999999999" type="line"/>
      <point x="773.4" y="873.0699999999999" type="line"/>
      <point x="365.47999999999996" y="881.0699999999999" type="line"/>
    </contour>
    <contour>
      <point x="852.8" y="0.0" type="line"/>
      <point x="1542.32" y="0.0" type="line" smooth="yes"/>
      <point x="1768.901428571433" y="0.0"/>
      <point x="2006.17" y="256.82"/>
      <point x="2006.17" y="456.49" type="qcurve" smooth="yes"/>
      <point x="2006.17" y="669.001893095773"/>
      <point x="1764.22" y="880.2299999999999"/>
      <point x="1514.5" y="880.2299999999999" type="qcurve" smooth="yes"/>
      <point x="1306.07" y="880.2299999999999" type="line"/>
      <point x="1298.6399999999999" y="892.9899999999999" type="line"/>
      <point x="1301.3" y="1345.22" type="line"/>
      <point x="1484.58" y="1379.22" type="line"/>
      <point x="1484.58" y="1500.0" type="line"/>
      <point x="852.8" y="1500.0" type="line"/>
      <point x="852.8" y="1379.22" type="line"/>
      <point x="1026.3" y="1345.22" type="line"/>
      <point x="1028.3" y="749.14" type="line"/>
      <point x="1026.3" y="142.62" type="line"/>
      <point x="852.8" y="107.61999999999999" type="line"/>
    </contour>
    <contour>
      <point x="1298.91" y="740.59" type="line"/>
      <point x="1307.07" y="753.6600000000001" type="line"/>
      <point x="1457.3" y="753.6600000000001" type="line" smooth="yes"/>
      <point x="1586.63" y="753.6600000000001"/>
      <point x="1724.1799999999998" y="610.419965753434"/>
      <point x="1724.1799999999998" y="458.66" type="qcurve" smooth="yes"/>
      <point x="1724.1799999999998" y="292.69"/>
      <point x="1585.5" y="121.02"/>
      <point x="1448.74" y="121.02" type="qcurve" smooth="yes"/>
      <point x="1328.75" y="121.02" type="line"/>
      <point x="1300.37" y="142.82" type="line"/>
    </contour>
  </outline>
</glyph>
<glyph name="Tshe" format="2">
  <advance width="1719"/>
  <unicode hex="040B"/>
  <outline>
    <contour>
      <point x="1676.4699999999998" y="107.61999999999999" type="line"/>
      <point x="1676.4699999999998" y="0.0" type="line"/>
      <point x="1223.19" y="0.0" type="line"/>
      <point x="1224.5" y="435.3" type="line" smooth="yes"/>
      <point x="1224.81" y="589.79"/>
      <point x="1104.529230769228" y="731.2900000000001"/>
      <point x="969.9100000000001" y="731.2900000000001" type="qcurve" smooth="yes"/>
      <point x="869.7797311939211" y="731.2900000000001"/>
      <point x="699.4940125056171" y="695.963266036748"/>
      <point x="606.08" y="662.94" type="qcurve"/>
      <point x="606.08" y="796.46" type="line"/>
      <point x="700.933675489713" y="830.249221673435"/>
      <point x="889.434499082548" y="874.36"/>
      <point x="1027.34" y="874.36" type="qcurve" smooth="yes"/>
      <point x="1257.554628099174" y="874.36"/>
      <point x="1496.69" y="661.17"/>
      <point x="1497.73" y="430.46999999999997" type="qcurve" smooth="yes"/>
      <point x="1498.77" y="142.93" type="line"/>
    </contour>
    <contour>
      <point x="40.0" y="1061.64" type="line"/>
      <point x="40.0" y="1500.0" type="line"/>
      <point x="1212.47" y="1500.0" type="line"/>
      <point x="1212.47" y="1091.24" type="line"/>
      <point x="1091.3100000000002" y="1091.24" type="line"/>
      <point x="1054.76" y="1369.6" type="line"/>
      <point x="758.93" y="1369.6" type="line"/>
      <point x="743.58" y="1350.84" type="line"/>
      <point x="741.89" y="754.0" type="line"/>
      <point x="743.58" y="142.47" type="line"/>
      <point x="931.13" y="107.2" type="line"/>
      <point x="931.13" y="0.0" type="line"/>
      <point x="279.88" y="0.0" type="line"/>
      <point x="279.88" y="107.2" type="line"/>
      <point x="468.27000000000004" y="142.47" type="line"/>
      <point x="470.27000000000004" y="754.0" type="line"/>
      <point x="468.27000000000004" y="1350.84" type="line"/>
      <point x="455.62" y="1369.6" type="line"/>
      <point x="197.4" y="1369.6" type="line"/>
      <point x="160.85" y="1061.64" type="line"/>
    </contour>
  </outline>
</glyph>
<glyph name="Icyr" format="2">
  <advance width="1575"/>
  <unicode hex="0418"/>
  <guideline x="739.0" y="930.0" angle="90.0" identifier="jpSOnFR6u4"/>
  <guideline x="893.64" y="792.61" angle="90.0" identifier="3fHus3tMSg"/>
  <guideline x="944.94" y="742.62" angle="0" identifier="rmoGi5h6UR"/>
  <outline>
    <contour>
      <point x="898.9100000000001" y="0.0" type="line"/>
      <point x="898.9100000000001" y="107.61999999999999" type="line"/>
      <point x="1071.79" y="142.62" type="line"/>
      <point x="1073.79" y="754.0" type="line"/>
      <point x="1071.79" y="1345.22" type="line"/>
      <point x="898.9100000000001" y="1379.22" type="line"/>
      <point x="898.9100000000001" y="1500.0" type="line"/>
      <point x="1524.8000000000002" y="1500.0" type="line"/>
      <point x="1524.8000000000002" y="1379.22" type="line"/>
      <point x="1347.1" y="1345.22" type="line"/>
      <point x="1345.1" y="754.0" type="line"/>
      <point x="1347.1" y="142.62" type="line"/>
      <point x="1524.8000000000002" y="107.61999999999999" type="line"/>
      <point x="1524.8000000000002" y="0.0" type="line"/>
    </contour>
    <contour>
      <point x="50.279999999999994" y="0.0" type="line"/>
      <point x="50.279999999999994" y="107.61999999999999" type="line"/>
      <point x="227.98000000000002" y="142.62" type="line"/>
      <point x="229.98000000000002" y="754.0" type="line"/>
      <point x="227.98000000000002" y="1345.22" type="line"/>
      <point x="50.279999999999994" y="1379.22" type="line"/>
      <point x="50.279999999999994" y="1500.0" type="line"/>
      <point x="676.17" y="1500.0" type="line"/>
      <point x="676.17" y="1379.22" type="line"/>
      <point x="503.28999999999996" y="1345.22" type="line"/>
      <point x="501.28999999999996" y="754.0" type="line"/>
      <point x="503.28999999999996" y="142.62" type="line"/>
      <point x="676.17" y="107.61999999999999" type="line"/>
      <point x="676.17" y="0.0" type="line"/>
    </contour>
    <contour>
      <point x="502.25000000000006" y="288.92" type="line"/>
      <point x="403.51" y="367.71" type="line"/>
      <point x="747.8" y="792.3000000000001" type="line"/>
      <point x="1072.52" y="1198.9199999999998" type="line"/>
      <point x="1170.95" y="1120.13" type="line"/>
      <point x="828.86" y="697.5799999999999" type="line"/>
    </contour>
  </outline>
</glyph>
<glyph name="Tse" format="2">
  <advance width="1557"/>
  <unicode hex="0426"/>
  <guideline x="1638.0" y="1367.0" angle="90.0" identifier="Ju90KfnAFs"/>
  <outline>
    <contour>
      <point x="1048.39" y="748.16" type="line"/>
      <point x="1046.39" y="1353.8700000000001" type="line"/>
      <point x="873.51" y="1388.6" type="line"/>
      <point x="873.51" y="1500.0" type="line"/>
      <point x="1499.3999999999999" y="1500.0" type="line"/>
      <point x="1499.3999999999999" y="1388.6" type="line"/>
      <point x="1321.7" y="1353.8700000000001" type="line"/>
      <point x="1319.7" y="748.16" type="line"/>
      <point x="1321.7" y="123.5" type="line"/>
      <point x="1499.3999999999999" y="123.5" type="line"/>
      <point x="1509.3999999999999" y="-338.0" type="line"/>
      <point x="1378.1999999999998" y="-338.0" type="line"/>
      <point x="1304.1" y="0.0" type="line"/>
      <point x="50.279999999999994" y="0.0" type="line"/>
      <point x="50.279999999999994" y="111.96" type="line"/>
      <point x="227.98000000000002" y="147.46" type="line"/>
      <point x="229.98000000000002" y="748.16" type="line"/>
      <point x="227.98000000000002" y="1353.8700000000001" type="line"/>
      <point x="50.279999999999994" y="1388.6" type="line"/>
      <point x="50.279999999999994" y="1500.0" type="line"/>
      <point x="676.17" y="1500.0" type="line"/>
      <point x="676.17" y="1388.6" type="line"/>
      <point x="503.28999999999996" y="1353.8700000000001" type="line"/>
      <point x="501.28999999999996" y="748.16" type="line"/>
      <point x="503.28999999999996" y="148.16" type="line"/>
      <point x="542.59" y="123.5" type="line"/>
      <point x="1007.0899999999999" y="123.5" type="line"/>
      <point x="1046.39" y="148.16" type="line"/>
    </contour>
  </outline>
</glyph>
<glyph name="Soft" format="2">
  <advance width="1249"/>
  <unicode hex="042C"/>
  <outline>
    <contour>
      <point x="509.36999999999995" y="777.53" type="line"/>
      <point x="500.9" y="764.4599999999999" type="line"/>
      <point x="502.62999999999994" y="142.82" type="line"/>
      <point x="531.01" y="121.02" type="line"/>
      <point x="650.73" y="121.02" type="line" smooth="yes"/>
      <point x="787.49" y="121.02"/>
      <point x="926.17" y="298.73"/>
      <point x="926.17" y="468.66" type="qcurve" smooth="yes"/>
      <point x="926.17" y="625.83"/>
      <point x="788.62" y="777.53"/>
      <point x="659.29" y="777.53" type="qcurve" smooth="yes"/>
    </contour>
    <contour>
      <point x="500.62999999999994" y="916.86" type="line"/>
      <point x="508.06" y="904.1" type="line"/>
      <point x="716.49" y="904.1" type="line" smooth="yes"/>
      <point x="966.2099999999999" y="904.52"/>
      <point x="1208.16" y="684.38"/>
      <point x="1208.16" y="466.49" type="qcurve" smooth="yes"/>
      <point x="1208.16" y="263.9"/>
      <point x="973.77" y="0.0"/>
      <point x="750.51" y="0.0" type="qcurve" smooth="yes"/>
      <point x="50.279999999999994" y="0.0" type="line"/>
      <point x="50.279999999999994" y="107.61999999999999" type="line"/>
      <point x="227.98000000000002" y="142.62" type="line"/>
      <point x="229.98000000000002" y="749.14" type="line"/>
      <point x="227.98000000000002" y="1345.22" type="line"/>
      <point x="50.279999999999994" y="1379.22" type="line"/>
      <point x="50.279999999999994" y="1500.0" type="line"/>
      <point x="686.57" y="1500.0" type="line"/>
      <point x="686.57" y="1379.22" type="line"/>
      <point x="503.28999999999996" y="1345.22" type="line"/>
    </contour>
  </outline>
</glyph>
<glyph name="Yu" format="2">
  <advance width="2119"/>
  <unicode hex="042E"/>
  <guideline x="732.0" y="785.0" angle="90.0" identifier="6nH5tb4DEh"/>
  <outline>
    <contour>
      <point x="50.279999999999994" y="0.0" type="line"/>
      <point x="50.279999999999994" y="107.61999999999999" type="line"/>
      <point x="227.98000000000002" y="142.62" type="line"/>
      <point x="229.98000000000002" y="754.0" type="line"/>
      <point x="227.98000000000002" y="1345.22" type="line"/>
      <point x="50.279999999999994" y="1379.22" type="line"/>
      <point x="50.279999999999994" y="1500.0" type="line"/>
      <point x="675.86" y="1500.0" type="line"/>
      <point x="675.86" y="1379.22" type="line"/>
      <point x="502.98" y="1345.22" type="line"/>
      <point x="500.98" y="754.0" type="line"/>
      <point x="502.98" y="142.62" type="line"/>
      <point x="675.86" y="107.61999999999999" type="line"/>
      <point x="675.86" y="0.0" type="line"/>
    </contour>
    <contour>
      <point x="365.47999999999996" y="710.64" type="line"/>
      <point x="365.47999999999996" y="850.26" type="line"/>
      <point x="867.98" y="842.26" type="line"/>
      <point x="867.98" y="710.64" type="line"/>
    </contour>
    <contour>
      <point x="720.63" y="740.54" type="qcurve" smooth="yes"/>
      <point x="720.63" y="1070.6999999999998"/>
      <point x="1087.82" y="1522.17"/>
      <point x="1385.6999999999998" y="1522.17" type="qcurve" smooth="yes"/>
      <point x="1683.8899999999999" y="1522.17"/>
      <point x="2050.35" y="1099.6999999999998"/>
      <point x="2050.35" y="755.54" type="qcurve" smooth="yes"/>
      <point x="2050.35" y="427.38"/>
      <point x="1687.36" y="-25.36"/>
      <point x="1389.17" y="-25.36" type="qcurve" smooth="yes"/>
      <point x="1094.93" y="-25.36"/>
      <point x="720.63" y="400.8"/>
    </contour>
    <contour>
      <point x="1015.33" y="775.16" type="qcurve" smooth="yes"/>
      <point x="1015.33" y="469.04999999999995"/>
      <point x="1222.712387968093" y="117.38"/>
      <point x="1387.28" y="117.38" type="qcurve" smooth="yes"/>
      <point x="1566.883363908008" y="117.38"/>
      <point x="1756.38" y="427.04999999999995"/>
      <point x="1756.38" y="749.78" type="qcurve" smooth="yes"/>
      <point x="1756.38" y="1038.31"/>
      <point x="1553.502350184099" y="1373.29"/>
      <point x="1386.66" y="1373.29" type="qcurve" smooth="yes"/>
      <point x="1207.0580774509929" y="1373.29"/>
      <point x="1015.33" y="1065.42"/>
    </contour>
  </outline>
</glyph>
<glyph name="ve" format="2">
  <advance width="1050"/>
  <unicode hex="0432"/>
  <guideline x="302.0" y="625.0" angle="90.0" identifier="FqbstdQzDn"/>
  <guideline x="953.31" y="643.28" angle="90.0" identifier="zbbKiP68t3"/>
  <outline>
    <contour>
      <point x="614.5799999999999" y="0.0" type="qcurve" smooth="yes"/>
      <point x="53.449999999999996" y="0.0" type="line"/>
      <point x="53.449999999999996" y="92.4" type="line"/>
      <point x="181.29000000000002" y="127.4" type="line"/>
      <point x="183.29000000000002" y="507.75" type="line"/>
      <point x="181.29000000000002" y="888.1" type="line"/>
      <point x="53.449999999999996" y="923.1" type="line"/>
      <point x="53.449999999999996" y="1015.5" type="line"/>
      <point x="619.74" y="1015.5" type="line" smooth="yes"/>
      <point x="785.36" y="1015.5"/>
      <point x="948.6700000000001" y="891.726111111118"/>
      <point x="948.6700000000001" y="783.85" type="qcurve" smooth="yes"/>
      <point x="948.6700000000001" y="695.403333333323"/>
      <point x="850.112831837843" y="570.792689397927"/>
      <point x="754.66" y="549.03" type="qcurve"/>
      <point x="754.66" y="545.03" type="line"/>
      <point x="864.320358351282" y="528.120964164878"/>
      <point x="999.7199999999999" y="401.20293436292"/>
      <point x="999.7199999999999" y="287.86" type="qcurve" smooth="yes"/>
      <point x="999.7199999999999" y="149.757661016946"/>
      <point x="799.34" y="0.0"/>
    </contour>
    <contour>
      <point x="312.13" y="585.16" type="line"/>
      <point x="525.2900000000001" y="585.16" type="line" smooth="yes"/>
      <point x="611.75" y="585.16"/>
      <point x="695.49" y="672.3"/>
      <point x="695.49" y="747.72" type="qcurve" smooth="yes"/>
      <point x="695.49" y="826.76"/>
      <point x="612.51" y="898.14"/>
      <point x="531.0500000000001" y="898.14" type="qcurve" smooth="yes"/>
      <point x="442.44" y="898.14" type="line"/>
      <point x="440.96999999999997" y="507.75" type="line"/>
      <point x="442.44" y="117.98" type="line"/>
      <point x="550.92" y="117.98" type="line" smooth="yes"/>
      <point x="645.6600000000001" y="117.98"/>
      <point x="742.54" y="206.78"/>
      <point x="742.54" y="297.44" type="qcurve" smooth="yes"/>
      <point x="742.54" y="382.1"/>
      <point x="652.1800000000001" y="471.21"/>
      <point x="564.72" y="471.21" type="qcurve" smooth="yes"/>
      <point x="312.13" y="471.21" type="line"/>
    </contour>
  </outline>
</glyph>
<glyph name="em" format="2">
  <advance width="1477"/>
  <unicode hex="043C"/>
  <guideline x="1255.86" y="881.72" angle="0" identifier="6e2z48lNZ1"/>
  <outline>
    <contour>
      <point x="297.46" y="127.4" type="line"/>
      <point x="399.96999999999997" y="92.4" type="line"/>
      <point x="399.96999999999997" y="0.0" type="line"/>
      <point x="53.449999999999996" y="0.0" type="line"/>
      <point x="53.449999999999996" y="92.4" type="line"/>
      <point x="181.29000000000002" y="127.4" type="line"/>
      <point x="183.87" y="508.64" type="line"/>
      <point x="181.29000000000002" y="888.1" type="line"/>
      <point x="53.449999999999996" y="923.1" type="line"/>
      <point x="53.449999999999996" y="1015.5" type="line"/>
      <point x="485.01" y="1015.5" type="line"/>
      <point x="617.15" y="576.18" type="line"/>
      <point x="726.13" y="238.49" type="line"/>
      <point x="837.24" y="575.39" type="line"/>
      <point x="970.96" y="1015.5" type="line"/>
      <point x="1423.21" y="1015.5" type="line"/>
      <point x="1423.21" y="923.1" type="line"/>
      <point x="1295.37" y="888.1" type="line"/>
      <point x="1293.37" y="508.02" type="line"/>
      <point x="1295.37" y="127.4" type="line"/>
      <point x="1423.21" y="92.4" type="line"/>
      <point x="1423.21" y="0.0" type="line"/>
      <point x="937.1800000000001" y="0.0" type="line"/>
      <point x="937.1800000000001" y="92.4" type="line"/>
      <point x="1039.69" y="127.4" type="line"/>
      <point x="1042.42" y="507.6" type="line"/>
      <point x="1039.69" y="871.3100000000001" type="line"/>
      <point x="916.4199999999998" y="489.63" type="line"/>
      <point x="765.05" y="-4.69" type="line"/>
      <point x="568.1700000000001" y="-4.69" type="line"/>
      <point x="423.90000000000003" y="473.53000000000003" type="line"/>
      <point x="296.84000000000003" y="868.6999999999999" type="line"/>
      <point x="294.15" y="508.64" type="line"/>
    </contour>
  </outline>
</glyph>
<glyph name="en" format="2">
  <advance width="1220"/>
  <unicode hex="043D"/>
  <guideline x="302.0" y="625.0" angle="90.0" identifier="jHuxcyi1x5"/>
  <guideline x="953.0" y="554.0" angle="90.0" identifier="b1mHk7wgTR"/>
  <guideline x="627.0" y="553.0" angle="90.0" identifier="m4aYe0x4PZ"/>
  <outline>
    <contour>
      <point x="312.13" y="585.78" type="line"/>
      <point x="609.16" y="582.78" type="line"/>
      <point x="908.28" y="585.78" type="line"/>
      <point x="908.28" y="463.42" type="line"/>
      <point x="609.16" y="465.42" type="line"/>
      <point x="312.13" y="463.42" type="line"/>
    </contour>
    <contour>
      <point x="183.29000000000002" y="507.75" type="line"/>
      <point x="181.29000000000002" y="888.1" type="line"/>
      <point x="53.449999999999996" y="923.1" type="line"/>
      <point x="53.449999999999996" y="1015.5" type="line"/>
      <point x="544.9499999999999" y="1015.5" type="line"/>
      <point x="544.9499999999999" y="923.1" type="line"/>
      <point x="442.44" y="888.1" type="line"/>
      <point x="440.96999999999997" y="507.75" type="line"/>
      <point x="442.44" y="127.4" type="line"/>
      <point x="544.9499999999999" y="92.4" type="line"/>
      <point x="544.9499999999999" y="0.0" type="line"/>
      <point x="53.449999999999996" y="0.0" type="line"/>
      <point x="53.449999999999996" y="92.4" type="line"/>
      <point x="181.29000000000002" y="127.4" type="line"/>
    </contour>
    <contour>
      <point x="1037.1200000000001" y="507.75" type="line"/>
      <point x="1039.1200000000001" y="127.4" type="line"/>
      <point x="1166.96" y="92.4" type="line"/>
      <point x="1166.96" y="0.0" type="line"/>
      <point x="675.46" y="0.0" type="line"/>
      <point x="675.46" y="92.4" type="line"/>
      <point x="777.97" y="127.4" type="line"/>
      <point x="779.44" y="507.75" type="line"/>
      <point x="777.97" y="888.1" type="line"/>
      <point x="675.46" y="923.1" type="line"/>
      <point x="675.46" y="1015.5" type="line"/>
      <point x="1166.96" y="1015.5" type="line"/>
      <point x="1166.96" y="923.1" type="line"/>
      <point x="1039.1200000000001" y="888.1" type="line"/>
    </contour>
  </outline>
</glyph>
<glyph name="yi" format="2">
  <advance width="628"/>
  <unicode hex="0457"/>
  <outline>
    <contour>
      <point x="52.60000000000001" y="0.0" type="line"/>
      <point x="52.60000000000001" y="92.4" type="line"/>
      <point x="188.78" y="127.4" type="line"/>
      <point x="190.78" y="534.75" type="line"/>
      <point x="187.43" y="846.65" type="line"/>
      <point x="51.25" y="876.65" type="line"/>
      <point x="51.25" y="982.74" type="line"/>
      <point x="371.51" y="1016.12" type="line"/>
      <point x="428.12" y="1016.12" type="line"/>
      <point x="457.32000000000005" y="976.12" type="line"/>
      <point x="450.32000000000005" y="534.75" type="line"/>
      <point x="452.32000000000005" y="127.4" type="line"/>
      <point x="588.5" y="92.4" type="line"/>
      <point x="588.5" y="0.0" type="line"/>
    </contour>
    <contour>
      <point x="7.66" y="1329.48" type="qcurve" smooth="yes"/>
      <point x="7.66" y="1393.71"/>
      <point x="79.4" y="1467.17"/>
      <point x="145.7" y="1467.17" type="qcurve" smooth="yes"/>
      <point x="208.62" y="1467.17"/>
      <point x="284.67" y="1391.5700000000002"/>
      <point x="284.67" y="1329.48" type="qcurve" smooth="yes"/>
      <point x="284.67" y="1267.1100000000001"/>
      <point x="213.55" y="1195.09"/>
      <point x="146.32" y="1195.09" type="qcurve" smooth="yes"/>
      <point x="83.4" y="1195.09"/>
      <point x="7.66" y="1270.69"/>
    </contour>
    <contour>
      <point x="323.56" y="1329.48" type="qcurve" smooth="yes"/>
      <point x="323.56" y="1393.71"/>
      <point x="394.99" y="1467.17"/>
      <point x="461.6" y="1467.17" type="qcurve" smooth="yes"/>
      <point x="524.21" y="1467.17"/>
      <point x="600.57" y="1391.5700000000002"/>
      <point x="600.57" y="1329.48" type="qcurve" smooth="yes"/>
      <point x="600.57" y="1267.1100000000001"/>
      <point x="529.45" y="1195.09"/>
      <point x="461.90999999999997" y="1195.09" type="qcurve" smooth="yes"/>
      <point x="399.61" y="1195.09"/>
      <point x="323.56" y="1270.69"/>
    </contour>
  </outline>
</glyph>
<glyph name="dzhe" format="2">
  <advance width="1211"/>
  <unicode hex="045F"/>
  <guideline x="302.0" y="625.0" angle="90.0" identifier="fhMaqTRb6E"/>
  <guideline x="953.0" y="554.0" angle="90.0" identifier="pLUUi3yULi"/>
  <guideline x="627.0" y="553.0" angle="90.0" identifier="hNrU98WFWt"/>
  <outline>
    <contour>
      <point x="183.29000000000002" y="507.75" type="line"/>
      <point x="181.29000000000002" y="888.1" type="line"/>
      <point x="53.449999999999996" y="923.1" type="line"/>
      <point x="53.449999999999996" y="1015.5" type="line"/>
      <point x="544.13" y="1015.5" type="line"/>
      <point x="544.13" y="923.1" type="line"/>
      <point x="443.16999999999996" y="888.1" type="line"/>
      <point x="440.86" y="506.91" type="line"/>
      <point x="443.16999999999996" y="120.26" type="line"/>
      <point x="768.21" y="120.26" type="line"/>
      <point x="770.52" y="506.49" type="line"/>
      <point x="768.21" y="888.1" type="line"/>
      <point x="667.25" y="923.1" type="line"/>
      <point x="667.25" y="1015.5" type="line"/>
      <point x="1157.9299999999998" y="1015.5" type="line"/>
      <point x="1157.9299999999998" y="923.1" type="line"/>
      <point x="1030.09" y="888.1" type="line"/>
      <point x="1028.09" y="507.75" type="line"/>
      <point x="1030.09" y="127.4" type="line"/>
      <point x="1157.9299999999998" y="92.4" type="line"/>
      <point x="1157.9299999999998" y="0.0" type="line"/>
      <point x="53.449999999999996" y="0.0" type="line"/>
      <point x="53.449999999999996" y="92.4" type="line"/>
      <point x="181.29000000000002" y="127.4" type="line"/>
    </contour>
    <contour>
      <point x="708.69" y="0.0" type="line"/>
      <point x="658.89" y="-318.0" type="line"/>
      <point x="552.49" y="-318.0" type="line"/>
      <point x="502.68999999999994" y="0.0" type="line"/>
    </contour>
  </outline>
</glyph>
<glyph name="kadescender" format="2">
  <advance width="1155"/>
  <unicode hex="049B"/>
  <guideline x="241.0" y="553.0" angle="90.0" identifier="lmgRx0QBdK"/>
  <outline>
    <contour>
      <point x="183.29000000000002" y="507.75" type="line"/>
      <point x="181.29000000000002" y="888.1" type="line"/>
      <point x="53.449999999999996" y="923.1" type="line"/>
      <point x="53.449999999999996" y="1015.5" type="line"/>
      <point x="544.9499999999999" y="1015.5" type="line"/>
      <point x="544.9499999999999" y="923.1" type="line"/>
      <point x="442.44" y="888.1" type="line"/>
      <point x="440.96999999999997" y="507.75" type="line"/>
      <point x="442.44" y="127.4" type="line"/>
      <point x="544.9499999999999" y="92.4" type="line"/>
      <point x="544.9499999999999" y="0.0" type="line"/>
      <point x="53.449999999999996" y="0.0" type="line"/>
      <point x="53.449999999999996" y="92.4" type="line"/>
      <point x="181.29000000000002" y="127.4" type="line"/>
    </contour>
    <contour>
      <point x="534.13" y="496.5" type="line"/>
      <point x="714.47" y="667.91" type="line"/>
      <point x="1051.28" y="120.26" type="line"/>
      <point x="1051.28" y="0.0" type="line"/>
      <point x="766.64" y="0.0" type="line"/>
      <point x="753.4" y="88.3" type="line"/>
      <point x="766.18" y="120.3" type="line"/>
    </contour>
    <contour>
      <point x="311.86" y="583.8900000000001" type="line"/>
      <point x="549.7" y="581.2" type="line"/>
      <point x="782.32" y="880.0" type="line"/>
      <point x="658.1200000000001" y="910.0" type="line"/>
      <point x="658.1200000000001" y="1015.5" type="line"/>
      <point x="1096.42" y="1015.5" type="line"/>
      <point x="1096.42" y="910.0" type="line"/>
      <point x="947.67" y="875.0" type="line"/>
      <point x="577.04" y="462.79999999999995" type="line"/>
      <point x="311.86" y="461.53" type="line"/>
    </contour>
    <contour>
      <point x="954.1299999999999" y="120.26" type="line"/>
      <point x="1153.97" y="120.26" type="line"/>
      <point x="1163.97" y="-318.0" type="line"/>
      <point x="1057.5700000000002" y="-318.0" type="line"/>
      <point x="966.7299999999999" y="0.0" type="line"/>
    </contour>
  </outline>
</glyph>
<glyph name="kaverticalstrokecyr" format="2">
  <advance width="1299"/>
  <unicode hex="049D"/>
  <guideline x="241.0" y="553.0" angle="90.0" identifier="lmgRx0QBdK"/>
  <outline>
    <contour>
      <point x="670.8199999999999" y="221.73" type="line"/>
      <point x="548.04" y="221.73" type="line"/>
      <point x="548.04" y="792.0" type="line"/>
      <point x="670.8199999999999" y="792.0" type="line"/>
    </contour>
    <contour>
      <point x="183.29000000000002" y="507.75" type="line"/>
      <point x="181.29000000000002" y="888.1" type="line"/>
      <point x="53.449999999999996" y="923.1" type="line"/>
      <point x="53.449999999999996" y="1015.5" type="line"/>
      <point x="545.68" y="1015.5" type="line"/>
      <point x="545.68" y="923.1" type="line"/>
      <point x="443.16999999999996" y="888.1" type="line"/>
      <point x="441.7" y="507.75" type="line"/>
      <point x="443.16999999999996" y="127.4" type="line"/>
      <point x="545.68" y="92.4" type="line"/>
      <point x="545.68" y="0.0" type="line"/>
      <point x="53.449999999999996" y="0.0" type="line"/>
      <point x="53.449999999999996" y="92.4" type="line"/>
      <point x="181.29000000000002" y="127.4" type="line"/>
    </contour>
    <contour>
      <point x="703.77" y="496.5" type="line"/>
      <point x="881.01" y="667.91" type="line"/>
      <point x="1193.23" y="127.4" type="line"/>
      <point x="1297.81" y="92.4" type="line"/>
      <point x="1297.81" y="0.0" type="line"/>
      <point x="913.1800000000001" y="0.0" type="line"/>
      <point x="899.94" y="88.3" type="line"/>
      <point x="912.72" y="120.3" type="line"/>
    </contour>
    <contour>
      <point x="609.43" y="583.62" type="line"/>
      <point x="719.96" y="581.2" type="line"/>
      <point x="929.48" y="880.0" type="line"/>
      <point x="804.66" y="910.0" type="line"/>
      <point x="804.66" y="1015.5" type="line"/>
      <point x="1242.96" y="1015.5" type="line"/>
      <point x="1242.96" y="910.0" type="line"/>
      <point x="1094.21" y="875.0" type="line"/>
      <point x="750.7099999999999" y="462.79999999999995" type="line"/>
      <point x="609.43" y="461.53" type="line"/>
    </contour>
  </outline>
</glyph>
<glyph name="Endescender" format="2">
  <advance width="1570"/>
  <unicode hex="04A2"/>
  <outline>
    <contour>
      <point x="1316.8" y="0.0" type="line"/>
      <point x="886.52" y="0.0" type="line"/>
      <point x="886.52" y="107.61999999999999" type="line"/>
      <point x="1059.3999999999999" y="142.62" type="line"/>
      <point x="1061.3999999999999" y="754.0" type="line"/>
      <point x="1059.3999999999999" y="1345.22" type="line"/>
      <point x="886.52" y="1379.22" type="line"/>
      <point x="886.52" y="1500.0" type="line"/>
      <point x="1512.1" y="1500.0" type="line"/>
      <point x="1512.1" y="1379.22" type="line"/>
      <point x="1334.3999999999999" y="1345.22" type="line"/>
      <point x="1332.3999999999999" y="754.0" type="line"/>
      <point x="1334.3999999999999" y="123.5" type="line"/>
      <point x="1512.1" y="123.5" type="line"/>
      <point x="1522.1" y="-338.0" type="line"/>
      <point x="1390.9" y="-338.0" type="line"/>
    </contour>
    <contour>
      <point x="50.279999999999994" y="0.0" type="line"/>
      <point x="50.279999999999994" y="107.61999999999999" type="line"/>
      <point x="227.98000000000002" y="142.62" type="line"/>
      <point x="229.98000000000002" y="754.0" type="line"/>
      <point x="227.98000000000002" y="1345.22" type="line"/>
      <point x="50.279999999999994" y="1379.22" type="line"/>
      <point x="50.279999999999994" y="1500.0" type="line"/>
      <point x="675.86" y="1500.0" type="line"/>
      <point x="675.86" y="1379.22" type="line"/>
      <point x="502.98" y="1345.22" type="line"/>
      <point x="500.98" y="754.0" type="line"/>
      <point x="502.98" y="142.62" type="line"/>
      <point x="675.86" y="107.61999999999999" type="line"/>
      <point x="675.86" y="0.0" type="line"/>
    </contour>
    <contour>
      <point x="365.47999999999996" y="710.64" type="line"/>
      <point x="365.47999999999996" y="850.26" type="line"/>
      <point x="785.7" y="842.26" type="line"/>
      <point x="1196.6299999999999" y="850.26" type="line"/>
      <point x="1196.6299999999999" y="710.64" type="line"/>
      <point x="785.7" y="710.64" type="line"/>
    </contour>
  </outline>
</glyph>
<glyph name="Tedescender-cy" format="2">
  <advance width="1252"/>
  <unicode hex="04AC"/>
  <outline>
    <contour>
      <point x="748.95" y="0.0" type="line"/>
      <point x="299.88" y="0.0" type="line"/>
      <point x="299.88" y="107.2" type="line"/>
      <point x="488.27000000000004" y="142.47" type="line"/>
      <point x="490.27000000000004" y="754.0" type="line"/>
      <point x="489.2" y="1350.84" type="line"/>
      <point x="479.89000000000004" y="1369.6" type="line"/>
      <point x="197.4" y="1369.6" type="line"/>
      <point x="160.85" y="1061.64" type="line"/>
      <point x="40.0" y="1061.64" type="line"/>
      <point x="40.0" y="1500.0" type="line"/>
      <point x="1212.47" y="1500.0" type="line"/>
      <point x="1212.47" y="1061.64" type="line"/>
      <point x="1091.3100000000002" y="1061.64" type="line"/>
      <point x="1054.76" y="1369.6" type="line"/>
      <point x="781.65" y="1369.6" type="line"/>
      <point x="762.96" y="1350.84" type="line"/>
      <point x="761.89" y="754.0" type="line"/>
      <point x="763.58" y="123.5" type="line"/>
      <point x="944.25" y="123.5" type="line"/>
      <point x="954.25" y="-338.0" type="line"/>
      <point x="823.05" y="-338.0" type="line"/>
    </contour>
  </outline>
</glyph>
<glyph name="Schwacyr" format="2">
  <advance width="1370"/>
  <unicode hex="04D8"/>
  <guideline x="250.75" y="849.86" angle="90.0" identifier="UtNSclIhRG"/>
  <guideline x="1347.2" y="829.51" angle="90.0" identifier="hwb5F7EShy"/>
  <outline>
    <contour>
      <point x="213.84" y="674.65" type="line"/>
      <point x="73.52" y="816.13" type="line"/>
      <point x="686.98" y="806.27" type="line"/>
      <point x="1154.92" y="814.27" type="line"/>
      <point x="1154.92" y="674.65" type="line"/>
      <point x="686.98" y="674.65" type="line"/>
    </contour>
    <contour>
      <point x="1301.85" y="755.54" type="qcurve" smooth="yes"/>
      <point x="1301.85" y="418.98"/>
      <point x="966.84" y="-25.36"/>
      <point x="681.9699999999999" y="-25.36" type="qcurve" smooth="yes"/>
      <point x="402.27" y="-25.36"/>
      <point x="68.63" y="372.57"/>
      <point x="68.63" y="712.9399999999999" type="qcurve" smooth="yes"/>
      <point x="68.63" y="739.1300000000001"/>
      <point x="70.63" y="791.05"/>
      <point x="73.52" y="816.13" type="qcurve"/>
      <point x="361.24" y="807.46" type="line"/>
      <point x="360.97" y="793.35"/>
      <point x="359.97" y="762.4"/>
      <point x="359.97" y="747.56" type="qcurve" smooth="yes"/>
      <point x="359.97" y="444.78000000000003"/>
      <point x="532.95" y="117.38"/>
      <point x="680.08" y="117.38" type="qcurve" smooth="yes"/>
      <point x="844.67760869564" y="117.38"/>
      <point x="1007.72" y="418.96"/>
      <point x="1007.72" y="749.78" type="qcurve" smooth="yes"/>
      <point x="1007.72" y="1039.26"/>
      <point x="811.9" y="1378.63"/>
      <point x="614.91" y="1378.63" type="qcurve" smooth="yes"/>
      <point x="486.75" y="1378.63"/>
      <point x="346.75" y="1271.8500000000001"/>
      <point x="326.79" y="1176.94" type="qcurve" smooth="yes"/>
      <point x="298.0" y="1036.01" type="line"/>
      <point x="167.7" y="1036.01" type="line"/>
      <point x="167.7" y="1499.58" type="line"/>
      <point x="278.72999999999996" y="1499.58" type="line"/>
      <point x="304.22999999999996" y="1408.1" type="line"/>
      <point x="350.92" y="1454.1299999999999"/>
      <point x="520.75" y="1520.0"/>
      <point x="646.62" y="1520.0" type="qcurve" smooth="yes"/>
      <point x="946.9100000000001" y="1520.0"/>
      <point x="1301.85" y="1103.4199999999998"/>
    </contour>
  </outline>
</glyph>
<glyph name="endash" format="2">
  <advance width="1024"/>
  <unicode hex="2013"/>
  <outline>
    <contour>
      <point x="0.0" y="544.95" type="line"/>
      <point x="0.0" y="734.41" type="line"/>
      <point x="503.0" y="736.41" type="line"/>
      <point x="1024.0" y="734.41" type="line"/>
      <point x="1024.0" y="544.95" type="line"/>
      <point x="503.0" y="538.95" type="line"/>
    </contour>
  </outline>
</glyph>
<glyph name="emdash" format="2">
  <advance width="2048"/>
  <unicode hex="2014"/>
  <outline>
    <contour>
      <point x="256.0" y="544.64" type="line"/>
      <point x="256.0" y="734.41" type="line"/>
      <point x="1024.0" y="736.41" type="line"/>
      <point x="1792.0" y="732.24" type="line"/>
      <point x="1792.0" y="544.64" type="line"/>
      <point x="1024.0" y="538.64" type="line"/>
    </contour>
  </outline>
</glyph>
<glyph name="quotesinglbase" format="2">
  <advance width="564"/>
  <unicode hex="201A"/>
  <outline>
    <contour>
      <point x="110.35" y="-228.99" type="line"/>
      <point x="157.99" y="-197.97"/>
      <point x="269.22" y="-83.7"/>
      <point x="291.44" y="-12.33" type="qcurve"/>
      <point x="202.82999999999998" y="-10.65"/>
      <point x="115.79999999999998" y="74.19"/>
      <point x="115.79999999999998" y="139.97" type="qcurve" smooth="yes"/>
      <point x="115.79999999999998" y="204.44"/>
      <point x="209.87" y="298.79999999999995"/>
      <point x="282.84" y="298.79999999999995" type="qcurve" smooth="yes"/>
      <point x="352.65000000000003" y="298.79999999999995"/>
      <point x="453.27" y="207.12"/>
      <point x="453.27" y="119.84" type="qcurve" smooth="yes"/>
      <point x="453.27" y="-8.48"/>
      <point x="272.71" y="-231.91"/>
      <point x="159.15" y="-286.15999999999997" type="qcurve"/>
    </contour>
  </outline>
</glyph>
<glyph name="quotedblleft" format="2">
  <advance width="995"/>
  <unicode hex="201C"/>
  <outline>
    <contour>
      <point x="459.28999999999996" y="1494.05" type="line"/>
      <point x="411.65" y="1463.0300000000002"/>
      <point x="300.42" y="1348.76"/>
      <point x="278.2" y="1277.39" type="qcurve"/>
      <point x="366.81" y="1275.71"/>
      <point x="453.84000000000003" y="1190.87"/>
      <point x="453.84000000000003" y="1125.09" type="qcurve" smooth="yes"/>
      <point x="453.84000000000003" y="1060.62"/>
      <point x="359.77000000000004" y="966.53"/>
      <point x="286.79999999999995" y="966.53" type="qcurve" smooth="yes"/>
      <point x="216.99" y="966.53"/>
      <point x="116.37000000000002" y="1057.94"/>
      <point x="116.37000000000002" y="1145.22" type="qcurve" smooth="yes"/>
      <point x="116.37000000000002" y="1273.54"/>
      <point x="296.93" y="1496.97"/>
      <point x="410.49" y="1551.22" type="qcurve"/>
    </contour>
    <contour>
      <point x="890.95" y="1494.05" type="line"/>
      <point x="843.31" y="1463.0300000000002"/>
      <point x="732.08" y="1348.76"/>
      <point x="709.8599999999999" y="1277.39" type="qcurve"/>
      <point x="798.47" y="1275.71"/>
      <point x="885.5" y="1190.87"/>
      <point x="885.5" y="1125.09" type="qcurve" smooth="yes"/>
      <point x="885.5" y="1060.62"/>
      <point x="791.4300000000001" y="966.53"/>
      <point x="718.46" y="966.53" type="qcurve" smooth="yes"/>
      <point x="648.65" y="966.53"/>
      <point x="548.03" y="1057.94"/>
      <point x="548.03" y="1145.22" type="qcurve" smooth="yes"/>
      <point x="548.03" y="1273.54"/>
      <point x="728.5899999999999" y="1496.97"/>
      <point x="842.15" y="1551.22" type="qcurve"/>
    </contour>
  </outline>
</glyph>
<glyph name="guilsinglleft" format="2">
  <advance width="799"/>
  <unicode hex="2039"/>
  <outline>
    <contour>
      <point x="29.099999999999998" y="629.36" type="line"/>
      <point x="85.95" y="665.8000000000001"/>
      <point x="553.13" y="975.68"/>
      <point x="612.48" y="1015.66" type="qcurve" smooth="yes"/>
      <point x="687.45" y="1066.04"/>
      <point x="768.0899999999999" y="948.8599999999999"/>
      <point x="697.5400000000001" y="897.3" type="qcurve" smooth="yes"/>
      <point x="584.23" y="812.99"/>
      <point x="327.25" y="636.74"/>
      <point x="294.75" y="613.62" type="qcurve"/>
      <point x="327.47" y="590.76"/>
      <point x="617.03" y="378.73"/>
      <point x="701.12" y="315.04" type="qcurve" smooth="yes"/>
      <point x="769.94" y="263.71"/>
      <point x="703.01" y="146.42"/>
      <point x="630.22" y="188.96" type="qcurve" smooth="yes"/>
      <point x="567.03" y="226.21"/>
      <point x="97.8" y="538.94"/>
      <point x="29.099999999999998" y="584.84" type="qcurve"/>
    </contour>
  </outline>
</glyph>
<glyph name="fraction" format="2">
  <advance width="378"/>
  <unicode hex="2044"/>
  <outline>
    <contour>
      <point x="-378.0" y="25.0" type="line"/>
      <point x="641.4" y="1529.0" type="line"/>
      <point x="755.8" y="1448.5" type="line"/>
      <point x="-263.6" y="-55.5" type="line"/>
    </contour>
  </outline>
</glyph>
<glyph name="franc" format="2">
  <advance width="1113"/>
  <unicode hex="20A3"/>
  <outline>
    <contour>
      <point x="77.46000000000001" y="0.0" type="line"/>
      <point x="77.46000000000001" y="107.61999999999999" type="line"/>
      <point x="255.16000000000003" y="143.16" type="line"/>
      <point x="257.16" y="755.62" type="line"/>
      <point x="255.16000000000003" y="1345.22" type="line"/>
      <point x="77.46000000000001" y="1379.22" type="line"/>
      <point x="77.46000000000001" y="1500.0" type="line"/>
      <point x="1048.56" y="1500.0" type="line"/>
      <point x="1089.96" y="1146.59" type="line"/>
      <point x="965.3900000000001" y="1146.59" type="line"/>
      <point x="888.99" y="1369.6" type="line"/>
      <point x="567.8" y="1369.6" type="line"/>
      <point x="530.05" y="1348.36" type="line"/>
      <point x="529.91" y="768.28" type="line"/>
      <point x="531.91" y="141.39" type="line"/>
      <point x="717.09" y="107.92999999999999" type="line"/>
      <point x="717.09" y="0.0" type="line"/>
    </contour>
    <contour>
      <point x="390.45" y="720.77" type="line"/>
      <point x="390.45" y="833.31" type="line"/>
      <point x="828.0300000000001" y="841.24" type="line"/>
      <point x="860.5500000000001" y="986.03" type="line"/>
      <point x="976.89" y="986.03" type="line"/>
      <point x="976.89" y="574.84" type="line"/>
      <point x="860.5500000000001" y="574.84" type="line"/>
      <point x="828.0300000000001" y="712.84" type="line"/>
    </contour>
    <contour>
      <point x="62.99" y="323.87" type="line"/>
      <point x="31.75" y="470.02" type="line"/>
      <point x="842.72" y="470.02" type="line"/>
      <point x="809.62" y="323.87" type="line"/>
    </contour>
  </outline>
</glyph>
<glyph name="guarani" format="2">
  <advance width="1354"/>
  <unicode hex="20B2"/>
  <outline>
    <contour>
      <point x="84.2" y="744.0" type="qcurve" smooth="yes"/>
      <point x="86.72" y="1091.37"/>
      <point x="456.68" y="1520.0"/>
      <point x="742.0999999999999" y="1520.0" type="qcurve" smooth="yes"/>
      <point x="945.6999999999999" y="1520.0"/>
      <point x="1218.54" y="1286.0"/>
      <point x="1230.76" y="1058.0" type="qcurve"/>
      <point x="1076.2" y="1058.0" type="line"/>
      <point x="1056.05" y="1205.56"/>
      <point x="899.14" y="1375.71"/>
      <point x="739.84" y="1375.71" type="qcurve" smooth="yes"/>
      <point x="547.68" y="1375.71"/>
      <point x="356.82" y="1041.0"/>
      <point x="356.71999999999997" y="768.0" type="qcurve" smooth="yes"/>
      <point x="356.2" y="475.0"/>
      <point x="587.52" y="124.4"/>
      <point x="755.16" y="124.4" type="qcurve" smooth="yes"/>
      <point x="891.8000000000001" y="124.4"/>
      <point x="1049.12" y="225.96"/>
      <point x="1050.3799999999999" y="348.8" type="qcurve" smooth="yes"/>
      <point x="1050.8" y="398.0" type="line" smooth="yes"/>
      <point x="1051.2199999999998" y="470.0"/>
      <point x="985.6199999999999" y="545.9"/>
      <point x="868.4" y="559.9" type="qcurve"/>
      <point x="888.88" y="671.1" type="line"/>
      <point x="1242.72" y="671.1" type="line"/>
      <point x="1264.0" y="212.4" type="line"/>
      <point x="1197.75" y="118.88"/>
      <point x="923.1400000000001" y="-17.34"/>
      <point x="733.46" y="-17.34" type="qcurve" smooth="yes"/>
      <point x="474.32" y="-17.34"/>
      <point x="81.68" y="381.6"/>
    </contour>
    <contour>
      <point x="433.7" y="-130.99" type="line"/>
      <point x="486.04" y="86.0" type="line"/>
      <point x="501.94" y="81.0" type="line"/>
      <point x="681.9" y="871.0" type="line"/>
      <point x="794.16" y="803.0" type="line"/>
      <point x="625.52" y="54.0" type="line"/>
      <point x="643.0" y="50.0" type="line"/>
      <point x="602.9799999999999" y="-117.99" type="line"/>
    </contour>
    <contour>
      <point x="832.41" y="1622.96" type="line"/>
      <point x="999.6899999999999" y="1622.96" type="line"/>
      <point x="952.0600000000001" y="1424.0" type="line"/>
      <point x="934.0000000000001" y="1428.0" type="line"/>
      <point x="794.16" y="803.0" type="line"/>
      <point x="681.9" y="871.0" type="line"/>
      <point x="811.4200000000001" y="1455.0" type="line"/>
      <point x="793.94" y="1460.0" type="line"/>
    </contour>
  </outline>
</glyph>
<glyph name="divisionslash" format="2">
  <advance width="732"/>
  <unicode hex="2215"/>
  <outline>
    <contour>
      <point x="-13.16" y="-104.05" type="line"/>
      <point x="551.49" y="1570.5" type="line"/>
      <point x="738.98" y="1510.0" type="line"/>
      <point x="174.64000000000001" y="-163.93" type="line"/>
    </contour>
  </outline>
</glyph>
<glyph name="bulletoperator" format="2">
  <advance width="1024"/>
  <unicode hex="2219"/>
  <outline>
    <contour>
      <point x="345.51" y="643.01" type="qcurve" smooth="yes"/>
      <point x="345.51" y="708.7"/>
      <point x="439.14" y="805.67"/>
      <point x="511.58" y="805.67" type="qcurve" smooth="yes"/>
      <point x="584.4399999999999" y="805.67"/>
      <point x="678.38" y="708.7"/>
      <point x="678.38" y="643.01" type="qcurve" smooth="yes"/>
      <point x="678.38" y="578.52"/>
      <point x="584.4399999999999" y="481.24"/>
      <point x="511.58" y="481.24" type="qcurve" smooth="yes"/>
      <point x="439.14" y="481.24"/>
      <point x="345.51" y="578.52"/>
    </contour>
  </outline>
</glyph>
<glyph name="notequal" format="2">
  <advance width="961"/>
  <unicode hex="2260"/>
  <outline>
    <contour>
      <point x="94.44999999999999" y="341.0" type="line"/>
      <point x="94.44999999999999" y="527.04" type="line"/>
      <point x="478.87" y="523.04" type="line"/>
      <point x="866.36" y="527.04" type="line"/>
      <point x="866.36" y="341.0" type="line"/>
      <point x="478.87" y="345.0" type="line"/>
    </contour>
    <contour>
      <point x="94.44999999999999" y="718.0600000000001" type="line"/>
      <point x="94.44999999999999" y="904.1" type="line"/>
      <point x="478.87" y="900.1" type="line"/>
      <point x="866.36" y="904.1" type="line"/>
      <point x="866.36" y="718.0600000000001" type="line"/>
      <point x="478.87" y="722.0600000000001" type="line"/>
    </contour>
    <contour>
      <point x="206.38" y="128.18" type="line"/>
      <point x="599.5400000000001" y="1177.1399999999999" type="line"/>
      <point x="753.58" y="1126.52" type="line"/>
      <point x="360.41999999999996" y="77.56" type="line"/>
    </contour>
  </outline>
</glyph>
<glyph name="fi" format="2">
  <advance width="1259"/>
  <unicode hex="FB01"/>
  <outline>
    <contour>
      <point x="47.49" y="0.0" type="line"/>
      <point x="47.49" y="92.4" type="line"/>
      <point x="186.43" y="127.4" type="line"/>
      <point x="189.67" y="534.75" type="line"/>
      <point x="187.6" y="861.5" type="line"/>
      <point x="55.34" y="873.3499999999999" type="line"/>
      <point x="48.15" y="979.02" type="line"/>
      <point x="189.29" y="999.5" type="line"/>
      <point x="190.32000000000002" y="1242.98" type="line" smooth="yes"/>
      <point x="190.66" y="1378.43"/>
      <point x="343.9" y="1524.77"/>
      <point x="476.38000000000005" y="1524.5" type="qcurve" smooth="yes"/>
      <point x="540.28" y="1524.23"/>
      <point x="638.0300000000001" y="1505.2900000000002"/>
      <point x="672.76" y="1491.1599999999999" type="qcurve" smooth="yes"/>
      <point x="691.48" y="1482.69" type="line"/>
      <point x="680.4399999999999" y="1361.76" type="line"/>
      <point x="664.9" y="1367.4199999999998" type="line" smooth="yes"/>
      <point x="647.38" y="1373.78"/>
      <point x="598.99" y="1385.74"/>
      <point x="571.96" y="1385.74" type="qcurve" smooth="yes"/>
      <point x="515.5899999999999" y="1385.74"/>
      <point x="448.38" y="1310.0400000000002"/>
      <point x="448.65000000000003" y="1227.11" type="qcurve" smooth="yes"/>
      <point x="448.88" y="997.09" type="line"/>
      <point x="1001.6" y="1009.66" type="line"/>
      <point x="1058.2099999999998" y="1009.66" type="line"/>
      <point x="1087.4099999999999" y="969.66" type="line"/>
      <point x="1080.4099999999999" y="534.75" type="line"/>
      <point x="1082.4099999999999" y="127.4" type="line"/>
      <point x="1218.59" y="92.4" type="line"/>
      <point x="1218.59" y="0.0" type="line"/>
      <point x="688.49" y="0.0" type="line"/>
      <point x="688.49" y="92.4" type="line"/>
      <point x="818.87" y="127.4" type="line"/>
      <point x="820.87" y="534.75" type="line"/>
      <point x="817.52" y="859.7" type="line"/>
      <point x="791.36" y="880.7" type="line"/>
      <point x="448.57000000000005" y="872.84" type="line"/>
      <point x="449.64000000000004" y="534.75" type="line"/>
      <point x="457.6" y="127.4" type="line"/>
      <point x="590.83" y="92.4" type="line"/>
      <point x="590.83" y="0.0" type="line"/>
    </contour>
    <contour>
      <point x="764.77" y="1329.48" type="qcurve" smooth="yes"/>
      <point x="764.77" y="1393.71"/>
      <point x="852.56" y="1467.17"/>
      <point x="934.6" y="1467.17" type="qcurve" smooth="yes"/>
      <point x="1012.0200000000001" y="1467.17"/>
      <point x="1105.98" y="1391.5700000000002"/>
      <point x="1105.67" y="1329.48" type="qcurve" smooth="yes"/>
      <point x="1105.67" y="1267.1100000000001"/>
      <point x="1017.88" y="1195.09"/>
      <point x="935.2199999999999" y="1195.09" type="qcurve" smooth="yes"/>
      <point x="858.11" y="1195.09"/>
      <point x="764.77" y="1270.69"/>
    </contour>
  </outline>
</glyph>
<glyph name="fl" format="2">
  <advance width="1253"/>
  <unicode hex="FB02"/>
  <outline>
    <contour>
      <point x="47.49" y="0.0" type="line"/>
      <point x="47.49" y="92.4" type="line"/>
      <point x="186.43" y="127.4" type="line"/>
      <point x="189.67" y="534.75" type="line"/>
      <point x="187.6" y="861.5" type="line"/>
      <point x="55.34" y="873.3499999999999" type="line"/>
      <point x="48.15" y="979.02" type="line"/>
      <point x="189.29" y="999.5" type="line"/>
      <point x="190.59" y="1265.3899999999999" type="line" smooth="yes"/>
      <point x="190.66" y="1386.26"/>
      <point x="332.02000000000004" y="1527.47"/>
      <point x="464.5" y="1527.47" type="qcurve" smooth="yes"/>
      <point x="504.08" y="1527.47"/>
      <point x="585.23" y="1518.85"/>
      <point x="620.12" y="1509.09" type="qcurve" smooth="yes"/>
      <point x="666.83" y="1497.18" type="line"/>
      <point x="1008.9399999999999" y="1534.0" type="line"/>
      <point x="1045.39" y="1533.4599999999998" type="line"/>
      <point x="1081.03" y="1497.0800000000002" type="line"/>
      <point x="1079.03" y="527.0" type="line"/>
      <point x="1081.03" y="127.4" type="line"/>
      <point x="1211.1000000000001" y="92.4" type="line"/>
      <point x="1211.1000000000001" y="0.0" type="line"/>
      <point x="690.33" y="0.0" type="line"/>
      <point x="690.33" y="92.4" type="line"/>
      <point x="817.18" y="127.4" type="line"/>
      <point x="819.6" y="527.0" type="line"/>
      <point x="817.18" y="1362.56" type="line"/>
      <point x="649.07" y="1386.35" type="line" smooth="yes"/>
      <point x="636.61" y="1388.31"/>
      <point x="595.04" y="1391.54"/>
      <point x="579.64" y="1391.54" type="qcurve" smooth="yes"/>
      <point x="512.98" y="1391.54"/>
      <point x="448.65000000000003" y="1320.97"/>
      <point x="448.65000000000003" y="1252.6200000000001" type="qcurve" smooth="yes"/>
      <point x="448.88" y="997.09" type="line"/>
      <point x="679.65" y="997.09" type="line"/>
      <point x="679.65" y="879.88" type="line"/>
      <point x="448.57000000000005" y="872.84" type="line"/>
      <point x="449.64000000000004" y="534.75" type="line"/>
      <point x="457.6" y="127.4" type="line"/>
      <point x="592.03" y="92.4" type="line"/>
      <point x="592.03" y="0.0" type="line"/>
    </contour>
  </outline>
</glyph>
<glyph name="De.bgr" format="2">
  <advance width="1457"/>
  <outline>
    <contour>
      <point x="1041.32" y="35.09" type="line"/>
      <point x="842.79" y="616.0600000000001" type="line"/>
      <point x="649.57" y="1192.49" type="line"/>
      <point x="462.23" y="620.27" type="line"/>
      <point x="270.39000000000004" y="35.2" type="line"/>
      <point x="124.27" y="35.620000000000005" type="line"/>
      <point x="336.37" y="654.75" type="line"/>
      <point x="614.36" y="1505.52" type="line"/>
      <point x="829.65" y="1505.52" type="line"/>
      <point x="1108.5800000000002" y="673.05" type="line"/>
      <point x="1333.03" y="35.09" type="line"/>
    </contour>
    <contour>
      <point x="1303.49" y="-338.0" type="line"/>
      <point x="1229.39" y="0.0" type="line"/>
      <point x="227.45" y="0.0" type="line"/>
      <point x="153.35" y="-338.0" type="line"/>
      <point x="22.15" y="-338.0" type="line"/>
      <point x="32.150000000000006" y="123.5" type="line"/>
      <point x="1424.69" y="123.5" type="line"/>
      <point x="1434.69" y="-338.0" type="line"/>
    </contour>
  </outline>
</glyph>
<glyph name="acutecombstack.case" format="2">
  <advance width="1024"/>
  <outline>
    <contour>
      <point x="749.9599999999999" y="1856.67" type="qcurve" smooth="yes"/>
      <point x="744.6899999999999" y="1823.57"/>
      <point x="699.7399999999999" y="1774.57"/>
      <point x="664.03" y="1754.22" type="qcurve" smooth="yes"/>
      <point x="410.22" y="1584.1299999999999" type="line"/>
      <point x="332.86" y="1658.42" type="line"/>
      <point x="489.26" y="1854.89" type="line" smooth="yes"/>
      <point x="524.9699999999999" y="1897.65"/>
      <point x="618.9899999999999" y="1972.6"/>
      <point x="669.8199999999999" y="1966.71" type="qcurve" smooth="yes"/>
      <point x="704.4" y="1960.82"/>
      <point x="755.2299999999999" y="1896.98"/>
    </contour>
  </outline>
</glyph>
<glyph name="be.locl" format="2">
  <advance width="1121"/>
  <outline>
    <contour>
      <point x="334.98" y="509.59999999999997" type="qcurve" smooth="yes"/>
      <point x="335.972152077293" y="318.435911690092"/>
      <point x="454.22" y="97.63000000000001"/>
      <point x="559.72" y="97.63000000000001" type="qcurve" smooth="yes"/>
      <point x="673.19" y="97.63000000000001"/>
      <point x="784.67" y="297.585616797887"/>
      <point x="784.67" y="495.6" type="qcurve" smooth="yes"/>
      <point x="784.67" y="678.951602209954"/>
      <point x="666.9599999999999" y="876.0999999999999"/>
      <point x="560.88" y="876.0999999999999" type="qcurve" smooth="yes"/>
      <point x="445.72" y="876.0999999999999"/>
      <point x="333.98890783295" y="697.924986410316"/>
    </contour>
    <contour>
      <point x="55.019999999999996" y="491.15000000000003" type="qcurve" smooth="yes"/>
      <point x="55.019999999999996" y="660.663494736862"/>
      <point x="207.03" y="895.73"/>
      <point x="358.06" y="951.64" type="qcurve"/>
      <point x="358.06" y="955.95" type="line"/>
      <point x="243.2233017598" y="986.100095578804"/>
      <point x="122.11" y="1104.432623574148"/>
      <point x="122.11" y="1214.64" type="qcurve" smooth="yes"/>
      <point x="122.11" y="1331.24"/>
      <point x="298.59" y="1480.97"/>
      <point x="537.73" y="1480.97" type="qcurve" smooth="yes"/>
      <point x="670.43" y="1480.97" type="line" smooth="yes"/>
      <point x="803.0799999999999" y="1480.97"/>
      <point x="906.523708530448" y="1504.1916330943081"/>
      <point x="916.12" y="1537.0" type="qcurve"/>
      <point x="1006.2300000000001" y="1537.0" type="line"/>
      <point x="998.8082810649421" y="1392.477987543372"/>
      <point x="843.4499999999999" y="1260.48"/>
      <point x="658.99" y="1260.48" type="qcurve" smooth="yes"/>
      <point x="534.34" y="1260.48" type="line" smooth="yes"/>
      <point x="388.56" y="1260.48"/>
      <point x="316.03" y="1207.871818181828"/>
      <point x="316.03" y="1155.84" type="qcurve" smooth="yes"/>
      <point x="316.03" y="1093.333691963458"/>
      <point x="445.096168258885" y="1030.457414209826"/>
      <point x="586.73" y="1010.23" type="qcurve" smooth="yes"/>
      <point x="821.3660715422429" y="976.766962753626"/>
      <point x="1066.25" y="716.375946155639"/>
      <point x="1066.25" y="497.15000000000003" type="qcurve" smooth="yes"/>
      <point x="1066.25" y="274.42386363635796"/>
      <point x="792.56" y="-21.45"/>
      <point x="564.0500000000001" y="-21.45" type="qcurve" smooth="yes"/>
      <point x="334.96000000000004" y="-21.45"/>
      <point x="55.019999999999996" y="252.01999999999998"/>
    </contour>
  </outline>
</glyph>
<glyph name="cedillacomb.case" format="2">
  <advance width="1024"/>
  <outline>
    <contour>
      <point x="567.41" y="-1.4999999999999998" type="line"/>
      <point x="499.28000000000003" y="-131.19" type="line"/>
      <point x="516.72" y="-126.25999999999999"/>
      <point x="578.71" y="-117.88"/>
      <point x="610.24" y="-117.88" type="qcurve" smooth="yes"/>
      <point x="690.94" y="-117.88"/>
      <point x="806.3100000000001" y="-212.61"/>
      <point x="806.3100000000001" y="-306.34" type="qcurve" smooth="yes"/>
      <point x="806.3100000000001" y="-408.51"/>
      <point x="655.41" y="-526.3000000000001"/>
      <point x="534.81" y="-526.3000000000001" type="qcurve" smooth="yes"/>
      <point x="442.15" y="-526.3000000000001"/>
      <point x="293.44" y="-484.05"/>
      <point x="235.32" y="-439.19" type="qcurve"/>
      <point x="287.39" y="-338.35" type="line"/>
      <point x="323.40000000000003" y="-363.1"/>
      <point x="437.3" y="-402.98"/>
      <point x="503.94" y="-402.98" type="qcurve" smooth="yes"/>
      <point x="560.22" y="-402.98"/>
      <point x="626.89" y="-351.18"/>
      <point x="626.89" y="-306.58" type="qcurve" smooth="yes"/>
      <point x="626.89" y="-264.28"/>
      <point x="569.17" y="-219.81"/>
      <point x="519.27" y="-219.81" type="qcurve" smooth="yes"/>
      <point x="487.05" y="-219.81"/>
      <point x="436.74" y="-227.81"/>
      <point x="419.22999999999996" y="-233.7" type="qcurve"/>
      <point x="357.48" y="-155.69" type="line"/>
      <point x="469.72" y="53.17" type="line"/>
    </contour>
  </outline>
</glyph>
<glyph name="diagonalbarO" format="2">
  <advance width="687"/>
  <outline>
    <contour>
      <point x="30.24" y="-121.38" type="line"/>
      <point x="87.24" y="86.62" type="line"/>
      <point x="103.13999999999999" y="81.62" type="line"/>
      <point x="309.14000000000004" y="871.62" type="line"/>
      <point x="425.34" y="803.62" type="line"/>
      <point x="232.34" y="54.62" type="line"/>
      <point x="250.24" y="50.62" type="line"/>
      <point x="207.24" y="-108.38" type="line"/>
    </contour>
    <contour>
      <point x="480.14000000000004" y="1618.62" type="line"/>
      <point x="657.24" y="1618.62" type="line"/>
      <point x="604.24" y="1424.62" type="line"/>
      <point x="585.34" y="1428.62" type="line"/>
      <point x="425.34" y="803.62" type="line"/>
      <point x="309.14000000000004" y="871.62" type="line"/>
      <point x="457.14000000000004" y="1455.62" type="line"/>
      <point x="437.14000000000004" y="1460.62" type="line"/>
    </contour>
  </outline>
</glyph>
<glyph name="diagonalbarl" format="2">
  <advance width="780"/>
  <outline>
    <contour>
      <point x="336.0" y="791.44" type="line"/>
      <point x="630.63" y="1009.03" type="line"/>
      <point x="701.43" y="875.6" type="line"/>
      <point x="404.83000000000004" y="678.28" type="line"/>
      <point x="90.71" y="447.75" type="line"/>
      <point x="15.91" y="583.34" type="line"/>
    </contour>
  </outline>
</glyph>
<glyph name="el.bgr" format="2">
  <advance width="1042"/>
  <outline>
    <contour>
      <point x="1041.2199999999998" y="105.5" type="line"/>
      <point x="1041.2199999999998" y="0.0" type="line"/>
      <point x="544.88" y="0.0" type="line"/>
      <point x="544.88" y="105.5" type="line"/>
      <point x="655.79" y="142.19" type="line"/>
      <point x="554.33" y="464.41999999999996" type="line"/>
      <point x="456.74999999999994" y="761.26" type="line"/>
      <point x="365.26" y="461.13" type="line"/>
      <point x="269.12" y="137.05" type="line"/>
      <point x="380.98" y="105.5" type="line"/>
      <point x="380.98" y="0.0" type="line"/>
      <point x="-2.7" y="0.0" type="line"/>
      <point x="-2.7" y="105.5" type="line"/>
      <point x="120.05" y="140.5" type="line"/>
      <point x="242.93" y="498.99" type="line"/>
      <point x="408.98" y="1021.02" type="line"/>
      <point x="627.01" y="1021.02" type="line"/>
      <point x="793.83" y="528.22" type="line"/>
      <point x="934.7499999999999" y="140.5" type="line"/>
    </contour>
  </outline>
</glyph>
<glyph name="five.lc" format="2">
  <advance width="885"/>
  <outline>
    <contour>
      <point x="595.4300000000001" y="86.71000000000001" type="qcurve" smooth="yes"/>
      <point x="593.24" y="227.45"/>
      <point x="408.17" y="352.18"/>
      <point x="255.36" y="350.9" type="qcurve" smooth="yes"/>
      <point x="139.92000000000002" y="350.46" type="line"/>
      <point x="88.21000000000001" y="426.07" type="line"/>
      <point x="158.41" y="1021.5899999999999" type="line"/>
      <point x="185.14" y="1053.75" type="line"/>
      <point x="801.65" y="1053.75" type="line"/>
      <point x="795.65" y="859.11" type="line"/>
      <point x="269.31" y="859.11" type="line"/>
      <point x="259.58" y="848.5300000000001" type="line"/>
      <point x="240.9" y="687.3000000000001"/>
      <point x="216.93" y="498.89"/>
      <point x="198.41" y="460.46" type="qcurve"/>
      <point x="380.53999999999996" y="497.12" type="line"/>
      <point x="601.6999999999999" y="494.43"/>
      <point x="854.28" y="295.79"/>
      <point x="855.8299999999999" y="116.6" type="qcurve" smooth="yes"/>
      <point x="858.0" y="-122.62"/>
      <point x="502.91" y="-384.51"/>
      <point x="203.68" y="-384.51" type="qcurve" smooth="yes"/>
      <point x="146.49" y="-384.51"/>
      <point x="27.659999999999997" y="-372.35"/>
      <point x="-7.9" y="-359.81" type="qcurve"/>
      <point x="24.240000000000002" y="-243.86999999999998" type="line"/>
      <point x="58.63" y="-250.73"/>
      <point x="126.52000000000001" y="-256.21000000000004"/>
      <point x="174.1" y="-256.21000000000004" type="qcurve" smooth="yes"/>
      <point x="383.03000000000003" y="-256.21000000000004"/>
      <point x="597.89" y="-79.02"/>
    </contour>
  </outline>
</glyph>
<glyph name="four.lc" format="2">
  <advance width="1085"/>
  <outline>
    <contour>
      <point x="617.33" y="-369.05" type="line"/>
      <point x="623.3199999999999" y="123.24" type="line"/>
      <point x="623.01" y="778.81" type="line"/>
      <point x="199.78" y="209.79" type="line"/>
      <point x="203.5" y="197.31" type="line"/>
      <point x="1093.1100000000001" y="183.57" type="line"/>
      <point x="1093.1100000000001" y="71.78" type="line"/>
      <point x="44.29" y="61.269999999999996" type="line"/>
      <point x="26.24" y="164.12" type="line"/>
      <point x="690.76" y="1066.21" type="line"/>
      <point x="844.2" y="1041.29" type="line"/>
      <point x="878.11" y="1006.5900000000001" type="line"/>
      <point x="872.8399999999999" y="125.24" type="line"/>
      <point x="872.53" y="-369.05" type="line"/>
    </contour>
  </outline>
</glyph>
<glyph name="gravecomb.case" format="2">
  <advance width="1024"/>
  <outline>
    <contour>
      <point x="267.58000000000004" y="1921.28" type="qcurve" smooth="yes"/>
      <point x="269.26000000000005" y="1956.13"/>
      <point x="333.41" y="2009.4699999999998"/>
      <point x="372.26" y="2009.4699999999998" type="qcurve" smooth="yes"/>
      <point x="412.45000000000005" y="2009.4699999999998"/>
      <point x="494.56" y="1941.69"/>
      <point x="531.51" y="1897.67" type="qcurve" smooth="yes"/>
      <point x="725.05" y="1672.83" type="line"/>
      <point x="652.17" y="1594.79" type="line"/>
      <point x="351.82" y="1791.68" type="line" smooth="yes"/>
      <point x="307.32" y="1820.7"/>
      <point x="265.06" y="1878.57"/>
    </contour>
  </outline>
</glyph>
<glyph name="jdotless" format="2">
  <advance width="582"/>
  <outline>
    <contour>
      <point x="-22.92" y="-486.14" type="qcurve"/>
      <point x="-22.92" y="-342.64" type="line"/>
      <point x="87.28" y="-340.48"/>
      <point x="177.61" y="-247.44"/>
      <point x="177.61" y="-131.64" type="qcurve" smooth="yes"/>
      <point x="175.92000000000002" y="534.75" type="line"/>
      <point x="172.84" y="846.65" type="line"/>
      <point x="36.660000000000004" y="876.65" type="line"/>
      <point x="36.660000000000004" y="982.74" type="line"/>
      <point x="356.81" y="1016.12" type="line"/>
      <point x="413.53" y="1016.12" type="line"/>
      <point x="442.73" y="976.12" type="line"/>
      <point x="436.31" y="534.75" type="line"/>
      <point x="438.62" y="-122.94" type="line" smooth="yes"/>
      <point x="439.62" y="-301.94"/>
      <point x="234.30999999999997" y="-498.69"/>
    </contour>
  </outline>
</glyph>
<glyph name="macronbelowcomb.case" format="2">
  <advance width="1024"/>
  <outline>
    <contour>
      <point x="202.83999999999997" y="-371.82" type="line"/>
      <point x="202.83999999999997" y="-211.27" type="line"/>
      <point x="821.16" y="-211.27" type="line"/>
      <point x="821.16" y="-371.82" type="line"/>
    </contour>
  </outline>
</glyph>
<glyph name="macroncombstack.case" format="2">
  <advance width="1024"/>
  <outline>
    <contour>
      <point x="202.83999999999997" y="1672.3799999999999" type="line"/>
      <point x="202.83999999999997" y="1838.06" type="line"/>
      <point x="821.16" y="1838.06" type="line"/>
      <point x="821.16" y="1672.3799999999999" type="line"/>
    </contour>
  </outline>
</glyph>
<glyph name="one.lf" format="2">
  <advance width="846"/>
  <outline>
    <contour>
      <point x="68.97" y="0.0" type="line"/>
      <point x="68.97" y="101.2" type="line"/>
      <point x="302.87" y="136.20000000000002" type="line"/>
      <point x="302.87" y="754.0" type="line"/>
      <point x="300.87" y="1346.41" type="line"/>
      <point x="71.17" y="1378.31" type="line"/>
      <point x="71.17" y="1487.83" type="line"/>
      <point x="543.49" y="1510.83" type="line"/>
      <point x="575.49" y="1475.83" type="line"/>
      <point x="569.49" y="754.0" type="line"/>
      <point x="569.49" y="136.20000000000002" type="line"/>
      <point x="803.39" y="101.2" type="line"/>
      <point x="803.39" y="0.0" type="line"/>
    </contour>
  </outline>
</glyph>
<glyph name="ringcomb.case" format="2">
  <advance width="1024"/>
  <outline>
    <contour>
      <point x="281.64" y="1819.83" type="qcurve" smooth="yes"/>
      <point x="281.64" y="1914.6200000000001"/>
      <point x="413.21000000000004" y="2040.57"/>
      <point x="512.0" y="2040.57" type="qcurve" smooth="yes"/>
      <point x="610.79" y="2040.57"/>
      <point x="742.36" y="1914.6200000000001"/>
      <point x="742.36" y="1819.83" type="qcurve" smooth="yes"/>
      <point x="742.36" y="1724.6200000000001"/>
      <point x="610.79" y="1598.67"/>
      <point x="512.0" y="1598.67" type="qcurve" smooth="yes"/>
      <point x="413.21000000000004" y="1598.67"/>
      <point x="281.64" y="1724.6200000000001"/>
    </contour>
    <contour>
      <point x="404.59000000000003" y="1819.83" type="qcurve" smooth="yes"/>
      <point x="404.59000000000003" y="1771.57"/>
      <point x="462.73999999999995" y="1712.4199999999998"/>
      <point x="512.0" y="1712.4199999999998" type="qcurve" smooth="yes"/>
      <point x="564.26" y="1712.4199999999998"/>
      <point x="619.41" y="1767.26"/>
      <point x="619.41" y="1819.83" type="qcurve" smooth="yes"/>
      <point x="619.41" y="1867.3600000000001"/>
      <point x="561.26" y="1926.82"/>
      <point x="512.0" y="1926.82" type="qcurve" smooth="yes"/>
      <point x="459.73999999999995" y="1926.82"/>
      <point x="404.59000000000003" y="1871.98"/>
    </contour>
  </outline>
</glyph>
<glyph name="three.lf" format="2">
  <advance width="1022"/>
  <outline>
    <contour>
      <point x="-2.6399999999999997" y="137.86" type="qcurve"/>
      <point x="71.86" y="254.98000000000002" type="line"/>
      <point x="132.02" y="186.47"/>
      <point x="279.77000000000004" y="121.28999999999999"/>
      <point x="379.59999999999997" y="121.28999999999999" type="qcurve" smooth="yes"/>
      <point x="488.54999999999995" y="121.28999999999999"/>
      <point x="638.13" y="258.33000000000004"/>
      <point x="638.13" y="410.75" type="qcurve" smooth="yes"/>
      <point x="638.13" y="579.06"/>
      <point x="432.52" y="721.8"/>
      <point x="277.46000000000004" y="721.8" type="qcurve" smooth="yes"/>
      <point x="231.9" y="721.8" type="line"/>
      <point x="198.7" y="835.2" type="line"/>
      <point x="295.57" y="840.2" type="line" smooth="yes"/>
      <point x="444.02" y="847.58"/>
      <point x="613.1" y="998.87"/>
      <point x="612.17" y="1152.94" type="qcurve" smooth="yes"/>
      <point x="611.55" y="1264.05"/>
      <point x="503.08" y="1372.74"/>
      <point x="415.46999999999997" y="1372.74" type="qcurve" smooth="yes"/>
      <point x="328.59" y="1372.74"/>
      <point x="189.16" y="1302.93"/>
      <point x="123.84" y="1232.0600000000002" type="qcurve"/>
      <point x="58.620000000000005" y="1342.4" type="line"/>
      <point x="127.00999999999999" y="1418.4799999999998"/>
      <point x="337.85999999999996" y="1521.24"/>
      <point x="491.25000000000006" y="1521.24" type="qcurve" smooth="yes"/>
      <point x="679.93" y="1521.24"/>
      <point x="905.4200000000001" y="1339.6100000000001"/>
      <point x="905.4200000000001" y="1184.31" type="qcurve" smooth="yes"/>
      <point x="905.4200000000001" y="1025.76"/>
      <point x="736.44" y="844.93"/>
      <point x="571.6600000000001" y="804.65" type="qcurve"/>
      <point x="571.6600000000001" y="797.65" type="line"/>
      <point x="733.34" y="773.75"/>
      <point x="940.85" y="572.7"/>
      <point x="940.85" y="396.28999999999996" type="qcurve" smooth="yes"/>
      <point x="940.85" y="202.5"/>
      <point x="664.5" y="-23.24"/>
      <point x="440.21" y="-23.24" type="qcurve" smooth="yes"/>
      <point x="290.34000000000003" y="-23.24"/>
      <point x="60.79" y="63.46"/>
    </contour>
  </outline>
</glyph>
<glyph name="tildecombstack.case" format="2">
  <advance width="1024"/>
  <outline>
    <contour>
      <point x="156.0" y="1737.41" type="line"/>
      <point x="187.83" y="1804.69"/>
      <point x="313.21999999999997" y="1918.78"/>
      <point x="386.76000000000005" y="1918.78" type="qcurve" smooth="yes"/>
      <point x="426.75" y="1918.78"/>
      <point x="495.53" y="1894.95"/>
      <point x="534.24" y="1869.67" type="qcurve" smooth="yes"/>
      <point x="561.31" y="1852.42"/>
      <point x="641.84" y="1807.61"/>
      <point x="682.25" y="1807.61" type="qcurve" smooth="yes"/>
      <point x="721.24" y="1807.61"/>
      <point x="795.0600000000001" y="1854.77"/>
      <point x="817.4200000000001" y="1891.67" type="qcurve"/>
      <point x="876.5" y="1800.52" type="line"/>
      <point x="840.36" y="1721.5"/>
      <point x="727.27" y="1637.7099999999998"/>
      <point x="665.78" y="1637.7099999999998" type="qcurve" smooth="yes"/>
      <point x="619.9" y="1637.7099999999998"/>
      <point x="528.14" y="1678.75"/>
      <point x="500.2" y="1697.41" type="qcurve" smooth="yes"/>
      <point x="464.57000000000005" y="1721.26"/>
      <point x="397.55" y="1750.26"/>
      <point x="368.61" y="1750.26" type="qcurve" smooth="yes"/>
      <point x="322.73" y="1750.26"/>
      <point x="238.01999999999998" y="1682.98"/>
      <point x="220.66" y="1655.39" type="qcurve"/>
    </contour>
  </outline>
</glyph>
<glyph name="two.lc" format="2">
  <advance width="950"/>
  <outline>
    <contour>
      <point x="50.57" y="0.0" type="line"/>
      <point x="50.57" y="108.96" type="line"/>
      <point x="66.36" y="191.63000000000002"/>
      <point x="217.58" y="367.58000000000004"/>
      <point x="352.73" y="463.90000000000003" type="qcurve" smooth="yes"/>
      <point x="477.98" y="551.29"/>
      <point x="595.4499999999999" y="695.35"/>
      <point x="595.4499999999999" y="783.34" type="qcurve" smooth="yes"/>
      <point x="595.4499999999999" y="859.4300000000001"/>
      <point x="501.48" y="936.0"/>
      <point x="416.47" y="936.0" type="qcurve" smooth="yes"/>
      <point x="333.13" y="936.0"/>
      <point x="181.03" y="865.73"/>
      <point x="124.66" y="807.3199999999999" type="qcurve"/>
      <point x="46.97" y="914.6" type="line"/>
      <point x="111.75999999999999" y="984.67"/>
      <point x="334.42999999999995" y="1085.39"/>
      <point x="500.72" y="1085.39" type="qcurve" smooth="yes"/>
      <point x="678.36" y="1085.39"/>
      <point x="882.48" y="941.74"/>
      <point x="884.03" y="814.31" type="qcurve" smooth="yes"/>
      <point x="885.89" y="669.9200000000001"/>
      <point x="695.5699999999999" y="479.78"/>
      <point x="541.1" y="398.33000000000004" type="qcurve" smooth="yes"/>
      <point x="405.22" y="330.58"/>
      <point x="286.71" y="238.67999999999998"/>
      <point x="262.78999999999996" y="193.93" type="qcurve"/>
      <point x="269.40000000000003" y="185.10999999999999" type="line"/>
      <point x="906.77" y="185.10999999999999" type="line"/>
      <point x="906.77" y="0.0" type="line"/>
    </contour>
  </outline>
</glyph>
<glyph name="zero.lf" format="2">
  <advance width="1161"/>
  <outline>
    <contour>
      <point x="64.61999999999999" y="748.17" type="qcurve" smooth="yes"/>
      <point x="64.61999999999999" y="1101.54"/>
      <point x="351.7" y="1521.55"/>
      <point x="582.12" y="1521.55" type="qcurve" smooth="yes"/>
      <point x="816.9200000000001" y="1521.55"/>
      <point x="1096.6899999999998" y="1107.23"/>
      <point x="1096.6899999999998" y="754.62" type="qcurve" smooth="yes"/>
      <point x="1096.6899999999998" y="420.53"/>
      <point x="822.12" y="-23.24"/>
      <point x="587.01" y="-23.24" type="qcurve" smooth="yes"/>
      <point x="350.56" y="-23.24"/>
      <point x="64.61999999999999" y="390.94"/>
    </contour>
    <contour>
      <point x="347.96000000000004" y="770.76" type="qcurve" smooth="yes"/>
      <point x="348.96000000000004" y="447.52"/>
      <point x="465.0" y="98.88000000000001"/>
      <point x="580.23" y="98.88000000000001" type="qcurve" smooth="yes"/>
      <point x="702.68" y="98.88000000000001"/>
      <point x="812.08" y="415.38"/>
      <point x="813.3499999999999" y="747.86" type="qcurve" smooth="yes"/>
      <point x="815.04" y="1063.89"/>
      <point x="696.1" y="1386.72"/>
      <point x="582.3" y="1386.72" type="qcurve" smooth="yes"/>
      <point x="459.18" y="1386.72"/>
      <point x="347.27" y="1092.55"/>
    </contour>
  </outline>
</glyph>
